<?xml version="1.0" encoding="utf-8"?>
<!-- Generator: Adobe Illustrator 16.0.0, SVG Export Plug-In . SVG Version: 6.00 Build 0)  -->
<!DOCTYPE svg PUBLIC "-//W3C//DTD SVG 1.1//EN" "http://www.w3.org/Graphics/SVG/1.1/DTD/svg11.dtd">
<svg version="1.1" id="Layer_1" xmlns="http://www.w3.org/2000/svg" xmlns:xlink="http://www.w3.org/1999/xlink" x="0px" y="0px"
	 width="264px" height="40px" viewBox="0 0 264 40" enable-background="new 0 0 264 40" xml:space="preserve">
<g>
	<g>
		<path fill="#131313" d="M64.651,42.911h-2.276l2.367,2.493v1.188h-4.876v-1.39h2.367l-2.367-2.494V41.52h4.786v1.392H64.651z
			 M58.899,42.911h-2.277l2.367,2.493v1.188h-4.877v-1.39h2.368l-2.368-2.494V41.52h4.787V42.911z M53.203,42.967h-2.457v2.176
			h2.457v1.448h-4.204V41.52h4.204V42.967z"/>
		<path fill="#1572B6" d="M45.652,76.08l-2.497-27.174h27.432l-2.5,27.168l-11.233,3.023L45.652,76.08z"/>
		<path fill="#33A9DC" d="M56.871,76.787l9.077-2.441l2.135-23.217H56.871V76.787L56.871,76.787z"/>
		<path fill="#FFFFFF" d="M56.871,60.973h4.544l0.314-3.412h-4.858v-3.332h8.611L65.4,55.123l-0.844,9.184h-7.685V60.973z"/>
		<path fill="#EBEBEB" d="M56.892,69.627l-0.015,0.004l-3.825-1.002l-0.245-2.656H49.36l0.481,5.23l7.034,1.896l0.016-0.004
			L56.892,69.627L56.892,69.627z"/>
		<path fill="#FFFFFF" d="M61.123,64.164l-0.413,4.463l-3.83,1.004V73.1l7.04-1.896l0.052-0.563l0.598-6.477H61.123L61.123,64.164z"
			/>
		<path fill="#EBEBEB" d="M56.883,54.227v3.334h-8.295l-0.069-0.75l-0.156-1.688l-0.083-0.896H56.883z M56.871,60.973v3.334h-3.776
			l-0.069-0.748l-0.157-1.691l-0.083-0.895H56.871z"/>
	</g>
	<g>
		<path fill="#F0DB4F" d="M78.371,43.768V76.02h35.841V43.768H78.371z M97.329,71.248c-0.529,0.969-1.539,1.605-2.709,1.91
			c-1.798,0.373-3.518,0.16-4.797-0.531c-0.856-0.473-1.525-1.199-1.979-2.037l2.729-1.506c0.024,0.01,0.096,0.127,0.191,0.277
			c0.348,0.525,0.648,0.895,1.238,1.156c0.58,0.178,1.853,0.293,2.344-0.627c0.3-0.465,0.205-1.969,0.205-3.627
			c0-2.609,0.013-5.209,0.013-7.791h3.357c0,2.838,0.018,5.527,0,8.295C97.93,68.469,98.094,69.982,97.329,71.248z M111.257,70.396
			c-1.166,3.592-7.674,3.709-10.273,1.336c-0.549-0.561-0.895-0.854-1.222-1.496c1.382-0.715,1.382-0.715,2.728-1.414
			c0.729,1.008,1.404,1.564,2.619,1.793c1.648,0.18,3.307-0.33,2.934-1.904c-0.381-1.285-3.373-1.6-5.41-2.977
			c-2.068-1.248-2.553-4.283-0.853-6.021c0.566-0.642,1.533-1.12,2.544-1.351l1.059-0.123c2.029-0.037,3.299,0.445,4.23,1.382
			c0.26,0.235,0.471,0.491,0.866,1.042c-1.082,0.621-1.077,0.615-2.629,1.52c-0.33-0.643-0.879-1.045-1.458-1.221
			c-0.9-0.244-2.037,0.021-2.273,0.877c-0.08,0.268-0.064,0.512,0.066,0.947c0.363,0.748,1.59,1.074,2.688,1.529
			c3.162,1.154,4.229,2.391,4.494,3.865C111.62,69.451,111.304,70.273,111.257,70.396z"/>
	</g>
	<g>
		<path fill="#E44D26" d="M7.377,75.92L4.876,48.305h27.485l-2.504,27.611l-11.255,3.072L7.377,75.92z"/>
		<path fill="#F16529" d="M18.618,76.641l9.094-2.482l2.14-23.596H18.618V76.641z"/>
		<path fill="#EBEBEB" d="M18.618,60.805h-4.553l-0.314-3.469h4.867v-3.387H9.99l0.082,0.908l0.846,9.334h7.7V60.805z
			 M18.618,69.602l-0.015,0.004l-3.832-1.021l-0.245-2.697h-3.455l0.482,5.314l7.048,1.928l0.016-0.006L18.618,69.602L18.618,69.602
			z"/>
		<path d="M7.433,40.799h1.748V42.5h1.6v-1.701h1.749v5.149h-1.749v-1.724h-1.6v1.725H7.433V40.799z M14.829,42.507h-1.54v-1.708
			h4.828v1.708h-1.54v3.441h-1.748V42.507z M18.884,40.799h1.823l1.122,1.811l1.12-1.811h1.824v5.149h-1.741v-2.552l-1.203,1.83
			h-0.03l-1.204-1.83v2.552h-1.71L18.884,40.799L18.884,40.799z M25.644,40.799h1.749v3.448h2.459v1.702h-4.208V40.799z"/>
		<path fill="#FFFFFF" d="M18.607,60.805v3.387h4.237l-0.399,4.393l-3.837,1.02v3.525l7.053-1.926l0.052-0.572l0.809-8.916
			l0.083-0.908h-0.927h-7.071V60.805z M18.607,53.949v3.387h8.311l0.069-0.762l0.157-1.717l0.083-0.908H18.607z"/>
	</g>
	<g>
		<path fill="#646464" d="M136.467,58.999c0-1.272-0.361-1.925-1.088-1.961c-0.289-0.015-0.57,0.032-0.846,0.138
			c-0.22,0.079-0.366,0.156-0.444,0.234v3.037c0.466,0.291,0.878,0.426,1.237,0.404C136.086,60.803,136.467,60.186,136.467,58.999z
			 M137.361,59.053c0,0.646-0.15,1.182-0.457,1.607c-0.34,0.484-0.811,0.732-1.412,0.746c-0.453,0.014-0.922-0.129-1.403-0.426v2.76
			l-0.777-0.277v-6.126c0.127-0.155,0.291-0.291,0.49-0.405c0.465-0.27,1.026-0.408,1.69-0.416l0.01,0.012
			c0.605-0.008,1.072,0.24,1.4,0.746C137.209,57.734,137.361,58.328,137.361,59.053z"/>
		<path fill="#646464" d="M142.119,60.863c0,0.867-0.088,1.469-0.262,1.803c-0.174,0.332-0.506,0.6-0.996,0.799
			c-0.398,0.156-0.828,0.24-1.289,0.256l-0.129-0.49c0.469-0.064,0.799-0.129,0.99-0.191c0.377-0.129,0.637-0.324,0.777-0.586
			c0.115-0.215,0.17-0.621,0.17-1.227v-0.201c-0.531,0.24-1.09,0.361-1.672,0.361c-0.385,0-0.723-0.121-1.014-0.361
			c-0.326-0.264-0.49-0.598-0.49-1.002v-3.239l0.779-0.267v3.26c0,0.349,0.111,0.617,0.336,0.805
			c0.227,0.189,0.516,0.279,0.873,0.271c0.357-0.006,0.74-0.146,1.146-0.416v-3.803h0.777v4.229H142.119z"/>
		<path fill="#646464" d="M145.156,61.365c-0.092,0.008-0.178,0.01-0.256,0.01c-0.439,0-0.783-0.104-1.029-0.314
			c-0.244-0.209-0.367-0.5-0.367-0.871v-3.065h-0.531v-0.489h0.531v-1.302l0.779-0.276v1.578h0.873v0.488h-0.873v3.044
			c0,0.292,0.078,0.499,0.234,0.62c0.135,0.102,0.348,0.158,0.639,0.17V61.365L145.156,61.365z"/>
		<path fill="#646464" d="M149.869,61.301h-0.777v-3.005c0-0.306-0.07-0.567-0.215-0.789c-0.164-0.249-0.393-0.372-0.686-0.372
			c-0.355,0-0.803,0.188-1.338,0.564v3.602h-0.779v-7.182l0.779-0.246v3.271c0.496-0.362,1.041-0.543,1.631-0.543
			c0.412,0,0.746,0.139,1.002,0.416c0.256,0.276,0.383,0.621,0.383,1.033V61.301L149.869,61.301z"/>
		<path fill="#646464" d="M154.006,58.877c0-0.488-0.092-0.893-0.275-1.212c-0.221-0.39-0.563-0.595-1.023-0.616
			c-0.854,0.049-1.277,0.661-1.277,1.833c0,0.537,0.088,0.986,0.268,1.347c0.229,0.459,0.57,0.686,1.025,0.678
			C153.578,60.9,154.006,60.223,154.006,58.877z M154.859,58.882c0,0.696-0.178,1.275-0.533,1.737
			c-0.391,0.52-0.932,0.777-1.621,0.777c-0.682,0-1.215-0.258-1.598-0.777c-0.35-0.461-0.523-1.041-0.523-1.737
			c0-0.653,0.189-1.204,0.566-1.651c0.396-0.477,0.92-0.713,1.566-0.713c0.645,0,1.172,0.237,1.576,0.713
			C154.67,57.678,154.859,58.229,154.859,58.882z"/>
		<path fill="#646464" d="M159.322,61.301h-0.779v-3.175c0-0.349-0.104-0.62-0.314-0.815c-0.209-0.195-0.488-0.291-0.836-0.283
			c-0.369,0.008-0.723,0.129-1.057,0.363v3.91h-0.777v-4.007c0.447-0.325,0.859-0.54,1.236-0.64
			c0.355-0.092,0.668-0.139,0.938-0.139c0.186,0,0.359,0.019,0.521,0.055c0.307,0.07,0.555,0.201,0.746,0.394
			c0.213,0.214,0.32,0.47,0.32,0.767L159.322,61.301L159.322,61.301z"/>
		
			<linearGradient id="SVGID_1_" gradientUnits="userSpaceOnUse" x1="3352.3584" y1="-2240.7031" x2="3382.8369" y2="-2266.9258" gradientTransform="matrix(0.1759 0 0 -0.1775 -469.1299 -343.327)">
			<stop  offset="0" style="stop-color:#5A9FD4"/>
			<stop  offset="1" style="stop-color:#306998"/>
		</linearGradient>
		<path fill="url(#SVGID_1_)" d="M125.623,54.146c-0.399,0.002-0.782,0.037-1.119,0.097c-0.991,0.175-1.172,0.542-1.172,1.218v0.893
			h2.343v0.297h-3.222c-0.681,0-1.276,0.41-1.463,1.188c-0.216,0.894-0.226,1.45,0,2.382c0.166,0.693,0.563,1.188,1.245,1.188h0.805
			v-1.07c0-0.773,0.669-1.456,1.464-1.456h2.341c0.65,0,1.17-0.536,1.17-1.19v-2.23c0-0.635-0.535-1.111-1.17-1.218
			C126.44,54.176,126.022,54.145,125.623,54.146z M124.356,54.866c0.242,0,0.438,0.2,0.438,0.448c0,0.246-0.196,0.445-0.438,0.445
			c-0.243,0-0.439-0.199-0.439-0.445C123.917,55.066,124.113,54.866,124.356,54.866z"/>
		
			<linearGradient id="SVGID_2_" gradientUnits="userSpaceOnUse" x1="3394.7002" y1="-2282.8008" x2="3383.8174" y2="-2267.4033" gradientTransform="matrix(0.1759 0 0 -0.1775 -469.1299 -343.327)">
			<stop  offset="0" style="stop-color:#FFD43B"/>
			<stop  offset="1" style="stop-color:#FFE873"/>
		</linearGradient>
		<path fill="url(#SVGID_2_)" d="M128.308,56.65v1.041c0,0.807-0.685,1.486-1.463,1.486h-2.341c-0.642,0-1.172,0.549-1.172,1.189
			V62.6c0,0.633,0.554,1.008,1.172,1.188c0.741,0.219,1.452,0.258,2.341,0c0.59-0.17,1.17-0.514,1.17-1.188v-0.895h-2.34v-0.299
			h3.512c0.682,0,0.936-0.475,1.172-1.188c0.244-0.734,0.234-1.438,0-2.381c-0.168-0.678-0.489-1.188-1.172-1.188H128.308
			L128.308,56.65z M126.991,62.301c0.242,0,0.439,0.197,0.439,0.443s-0.197,0.447-0.439,0.447s-0.439-0.201-0.439-0.447
			S126.749,62.301,126.991,62.301z"/>
		
			<radialGradient id="SVGID_3_" cx="-5723.5947" cy="-1419.1729" r="8.114" gradientTransform="matrix(0 -0.075 -0.3297 0 -342.2239 -364.0081)" gradientUnits="userSpaceOnUse">
			<stop  offset="0" style="stop-color:#B8B8B8;stop-opacity:0.498"/>
			<stop  offset="1" style="stop-color:#7F7F7F;stop-opacity:0"/>
		</radialGradient>
		<path opacity="0.444" fill="url(#SVGID_3_)" enable-background="new    " d="M128.841,65.305c0,0.336-1.404,0.607-3.139,0.607
			s-3.141-0.271-3.141-0.607s1.406-0.607,3.141-0.607C127.435,64.697,128.841,64.969,128.841,65.305z"/>
	</g>
	<g>
		<path fill="#00618A" d="M168.123,62.414h1.283v-5.068l1.988,4.42c0.232,0.535,0.555,0.725,1.184,0.725
			c0.631,0,0.939-0.189,1.174-0.725l1.986-4.42v5.068h1.285v-5.061c0-0.494-0.197-0.731-0.605-0.854
			c-0.975-0.306-1.629-0.041-1.926,0.617l-1.951,4.36l-1.889-4.36c-0.283-0.658-0.949-0.923-1.926-0.618
			c-0.406,0.124-0.604,0.361-0.604,0.855V62.414L168.123,62.414z M178.092,58.289h1.283v2.793c-0.012,0.15,0.049,0.508,0.752,0.52
			c0.357,0.006,2.77,0,2.791,0v-3.326h1.287c0.006,0-0.002,4.535-0.002,4.555c0.008,1.119-1.387,1.361-2.031,1.381h-4.053v-0.863
			c0.006,0,4.051,0,4.061,0c0.826-0.088,0.729-0.498,0.729-0.637v-0.338h-2.729c-1.27-0.012-2.078-0.564-2.088-1.203
			C178.092,61.111,178.119,58.316,178.092,58.289L178.092,58.289z"/>
		<path fill="#E48E00" d="M185.193,62.414h3.691c0.434,0,0.854-0.09,1.186-0.246c0.557-0.256,0.828-0.602,0.828-1.055v-0.938
			c0-0.371-0.311-0.717-0.914-0.945c-0.32-0.125-0.717-0.189-1.1-0.189h-1.555c-0.52,0-0.766-0.156-0.828-0.502
			c-0.012-0.041-0.012-0.074-0.012-0.115V57.84c0-0.033,0-0.066,0.012-0.107c0.063-0.264,0.197-0.336,0.654-0.379l0.125-0.008h3.666
			v-0.854h-3.604c-0.52,0-0.791,0.032-1.037,0.106c-0.766,0.238-1.1,0.616-1.1,1.275v0.748c0,0.576,0.654,1.07,1.752,1.186
			c0.125,0.008,0.248,0.018,0.371,0.018h1.334c0.049,0,0.098,0,0.135,0.008c0.408,0.033,0.58,0.107,0.705,0.255
			c0.074,0.074,0.098,0.147,0.098,0.229v0.75c0,0.09-0.061,0.205-0.186,0.305c-0.109,0.1-0.295,0.164-0.543,0.182l-0.135,0.008
			h-3.545V62.414z M198.908,60.926c0,0.881,0.654,1.375,1.975,1.473c0.123,0.008,0.246,0.018,0.369,0.018h3.346v-0.855h-3.369
			c-0.754,0-1.037-0.189-1.037-0.643V56.49h-1.283V60.926L198.908,60.926z M191.717,60.971v-3.053c0-0.773,0.545-1.245,1.621-1.395
			c0.111-0.017,0.236-0.023,0.346-0.023h2.438c0.125,0,0.236,0.008,0.359,0.023c1.076,0.148,1.621,0.619,1.621,1.395v3.053
			c0,0.629-0.232,0.965-0.766,1.186l1.266,1.141h-1.49l-1.023-0.924l-1.027,0.064h-1.375c-0.234,0-0.48-0.031-0.754-0.105
			C192.113,62.109,191.717,61.68,191.717,60.971z M193.104,60.896c0,0.041,0.012,0.082,0.021,0.133
			c0.074,0.354,0.41,0.551,0.916,0.551h1.166l-1.068-0.967h1.488l0.936,0.844c0.174-0.092,0.287-0.23,0.326-0.412
			c0.012-0.041,0.012-0.082,0.012-0.123v-2.928c0-0.032,0-0.074-0.012-0.115c-0.074-0.33-0.408-0.52-0.904-0.52h-1.941
			c-0.568,0-0.939,0.246-0.939,0.635V60.896L193.104,60.896z"/>
		<path fill="#00618A" d="M205.729,55.068c-0.789-0.021-1.395,0.053-1.908,0.27c-0.146,0.063-0.381,0.063-0.404,0.247
			c0.08,0.085,0.094,0.211,0.158,0.313c0.123,0.199,0.33,0.467,0.516,0.605c0.201,0.153,0.41,0.316,0.629,0.449
			c0.385,0.234,0.816,0.37,1.189,0.605c0.219,0.14,0.436,0.313,0.65,0.471c0.104,0.078,0.176,0.199,0.313,0.248v-0.022
			c-0.072-0.092-0.092-0.218-0.158-0.313l-0.291-0.293c-0.283-0.379-0.646-0.711-1.031-0.986c-0.309-0.221-0.994-0.518-1.121-0.875
			l-0.023-0.021c0.219-0.024,0.473-0.104,0.674-0.158c0.338-0.09,0.639-0.066,0.986-0.156l0.473-0.135v-0.09
			c-0.176-0.181-0.303-0.42-0.494-0.584c-0.502-0.428-1.051-0.854-1.615-1.211c-0.314-0.197-0.701-0.326-1.033-0.494
			c-0.111-0.057-0.307-0.086-0.381-0.18c-0.176-0.222-0.27-0.504-0.404-0.763c-0.281-0.542-0.559-1.136-0.809-1.706
			c-0.17-0.389-0.281-0.773-0.492-1.122c-1.02-1.675-2.117-2.687-3.816-3.681c-0.359-0.211-0.797-0.295-1.256-0.404l-0.74-0.045
			c-0.148-0.063-0.307-0.247-0.447-0.336c-0.564-0.355-2.008-1.129-2.426-0.112c-0.264,0.642,0.396,1.269,0.631,1.593
			c0.162,0.229,0.375,0.484,0.492,0.74c0.076,0.169,0.092,0.338,0.156,0.518c0.162,0.438,0.305,0.916,0.518,1.324
			c0.105,0.205,0.225,0.422,0.357,0.605c0.082,0.111,0.227,0.162,0.246,0.336c-0.139,0.193-0.145,0.495-0.225,0.74
			c-0.35,1.105-0.217,2.48,0.293,3.299c0.156,0.251,0.525,0.79,1.031,0.583c0.443-0.181,0.346-0.74,0.473-1.233
			c0.029-0.111,0.01-0.195,0.066-0.27v0.023l0.404,0.807c0.299,0.482,0.83,0.984,1.279,1.324c0.23,0.176,0.416,0.48,0.719,0.584
			V55.54h-0.023c-0.059-0.091-0.148-0.128-0.225-0.202c-0.176-0.172-0.371-0.386-0.516-0.583c-0.408-0.555-0.771-1.163-1.102-1.795
			c-0.154-0.302-0.293-0.635-0.426-0.942c-0.051-0.119-0.051-0.299-0.156-0.358c-0.145,0.226-0.357,0.407-0.473,0.673
			c-0.18,0.425-0.203,0.943-0.27,1.48l-0.045,0.022c-0.313-0.075-0.422-0.397-0.539-0.673c-0.293-0.698-0.348-1.822-0.088-2.625
			c0.066-0.208,0.367-0.863,0.246-1.055c-0.059-0.192-0.252-0.303-0.359-0.449c-0.133-0.182-0.268-0.419-0.359-0.629
			c-0.24-0.543-0.352-1.154-0.604-1.704c-0.121-0.263-0.326-0.529-0.494-0.763c-0.188-0.26-0.396-0.451-0.537-0.764
			c-0.055-0.111-0.121-0.289-0.047-0.404c0.023-0.076,0.061-0.108,0.137-0.135c0.129-0.1,0.492,0.034,0.627,0.09
			c0.361,0.149,0.66,0.293,0.965,0.494c0.146,0.098,0.295,0.285,0.473,0.336h0.201c0.316,0.073,0.67,0.022,0.965,0.112
			c0.521,0.159,0.99,0.405,1.414,0.674c1.293,0.817,2.352,1.979,3.074,3.366c0.117,0.223,0.168,0.436,0.27,0.673
			c0.207,0.478,0.467,0.97,0.672,1.437c0.207,0.467,0.406,0.937,0.697,1.324c0.152,0.205,0.742,0.313,1.01,0.426
			c0.188,0.08,0.494,0.162,0.672,0.27c0.34,0.205,0.67,0.449,0.988,0.674C205.213,54.621,205.703,54.867,205.729,55.068
			L205.729,55.068z M195.697,46.52c-0.164-0.002-0.281,0.019-0.404,0.045v0.022h0.021c0.08,0.162,0.217,0.265,0.313,0.404
			l0.227,0.471l0.021-0.022c0.141-0.098,0.201-0.254,0.201-0.494c-0.057-0.059-0.063-0.131-0.109-0.201
			C195.902,46.65,195.777,46.598,195.697,46.52z"/>
	</g>
</g>
<g>
	<g>
		<path fill="#003A2B" d="M258.26,58.615c0,1.188-0.969,2.156-2.156,2.156h-34.75c-1.188,0-2.156-0.969-2.156-2.156V46.24
			c0-1.188,0.969-2.156,2.156-2.156h34.75c1.188,0,2.156,0.969,2.156,2.156V58.615z"/>
		<path fill="#FFFFFF" d="M225.916,46.678h1.875v8.563c-0.938,0.188-1.656,0.25-2.406,0.25c-2.25,0-3.438-1.031-3.438-2.969
			c0-1.875,1.25-3.125,3.188-3.125c0.313,0,0.531,0.031,0.813,0.094v-2.813H225.916z M225.916,50.99
			c-0.219-0.063-0.406-0.094-0.625-0.094c-0.938,0-1.469,0.563-1.469,1.594c0,1,0.531,1.531,1.469,1.531
			c0.219,0,0.375,0,0.625-0.063V50.99z M230.729,49.553v4.281c0,1.469-0.094,2.188-0.438,2.813c-0.313,0.594-0.688,0.969-1.5,1.375
			l-1.719-0.813c0.813-0.375,1.219-0.719,1.469-1.25s0.344-1.156,0.344-2.75v-3.656H230.729z M228.885,46.709h1.844v1.906h-1.844
			V46.709z M231.854,49.959c0.813-0.375,1.594-0.563,2.438-0.563c0.938,0,1.563,0.25,1.844,0.75
			c0.156,0.281,0.219,0.625,0.219,1.406v3.75c-0.844,0.125-1.875,0.219-2.656,0.219c-1.563,0-2.25-0.531-2.25-1.75
			c0-1.313,0.938-1.906,3.188-2.094v-0.406c0-0.344-0.156-0.469-0.625-0.469c-0.688,0-1.469,0.188-2.188,0.563v-1.406H231.854z
			 M234.729,52.896c-1.219,0.125-1.625,0.313-1.625,0.781c0,0.375,0.219,0.531,0.719,0.531c0.281,0,0.531-0.031,0.875-0.094v-1.219
			H234.729z M237.26,49.834c1.094-0.281,2-0.406,2.906-0.406c0.938,0,1.625,0.219,2.031,0.625c0.375,0.406,0.5,0.844,0.5,1.75v3.625
			h-1.844v-3.563c0-0.719-0.25-0.969-0.906-0.969c-0.25,0-0.469,0.031-0.844,0.125v4.406h-1.844V49.834z M243.416,56.428
			c0.656,0.344,1.313,0.5,1.969,0.5c1.219,0,1.719-0.5,1.719-1.656V55.24c-0.375,0.188-0.719,0.25-1.188,0.25
			c-1.625,0-2.656-1.063-2.656-2.75c0-2.094,1.531-3.281,4.219-3.281c0.781,0,1.531,0.094,2.406,0.25l-0.625,1.344
			c-0.5-0.094-0.031,0-0.406-0.063v0.188l0.031,0.781v1c0,0.25,0,0.5,0.031,0.75v0.5c0,1.594-0.125,2.344-0.531,2.938
			c-0.563,0.906-1.563,1.344-3,1.344c-0.719,0-1.344-0.094-2-0.375v-1.688H243.416z M247.104,50.928h-0.188
			c-0.375,0-0.781,0.094-1.063,0.25c-0.438,0.25-0.688,0.719-0.688,1.344c0,0.938,0.469,1.469,1.281,1.469
			c0.25,0,0.469-0.063,0.688-0.125v-2.938H247.104z M252.791,49.396c1.844,0,2.969,1.156,2.969,3.063
			c0,1.938-1.188,3.156-3.063,3.156c-1.844,0-3-1.156-3-3.031C249.729,50.615,250.916,49.396,252.791,49.396z M252.76,54.084
			c0.719,0,1.125-0.594,1.125-1.625c0-1-0.406-1.625-1.125-1.625s-1.156,0.594-1.156,1.625
			C251.635,53.521,252.041,54.084,252.76,54.084z"/>
	</g>
</g>
<g>
	<title>Artboard 6</title>
	<g id="plain-wordmark">
		<path fill="#C1272D" d="M59.525,18.283h-3.448v-0.469c0-0.374,0.031-0.752,0.058-1.125c0.023-0.329,0.104-0.648,0.238-0.941
			c0.121-0.252,0.294-0.467,0.506-0.628c0.271-0.17,0.578-0.257,0.89-0.249c0.19,0.001,0.379,0.022,0.567,0.064
			c0.149,0.064,0.265,0.095,0.385,0.155l0.238-0.627c-0.153-0.079-0.311-0.142-0.475-0.189c-0.211-0.065-0.433-0.098-0.655-0.094
			c-0.412-0.015-0.82,0.083-1.189,0.283c-0.318,0.189-0.592,0.457-0.802,0.782c-0.195,0.358-0.337,0.75-0.417,1.16
			c-0.087,0.474-0.125,0.956-0.119,1.439v0.468h-1.128v0.628h1.128v7.583h0.77V18.91h3.448v5.198
			c-0.002,0.35,0.028,0.696,0.088,1.037c0.035,0.29,0.125,0.569,0.267,0.816c0.126,0.23,0.313,0.419,0.535,0.531
			c0.282,0.135,0.585,0.199,0.891,0.191c0.354,0.013,0.708-0.052,1.04-0.191l-0.089-0.625c-0.118,0.037-0.237,0.069-0.359,0.094
			c-0.166,0.026-0.336,0.037-0.504,0.029c-0.334,0.035-0.661-0.129-0.863-0.43c-0.173-0.39-0.255-0.821-0.238-1.254V18.94h2.188
			v-0.624h-2.169V16.5l-0.771,0.249L59.525,18.283z M59.557,18.283L59.557,18.283z M59.588,18.91L59.588,18.91z M32.623,25.269
			c0.329,0.242,0.69,0.422,1.071,0.535c0.415,0.137,0.846,0.212,1.279,0.217c0.685,0.049,1.362-0.185,1.903-0.657
			c0.442-0.433,0.692-1.062,0.681-1.719c0.02-0.586-0.16-1.158-0.504-1.602c-0.474-0.507-1.042-0.892-1.664-1.128
			c-0.738-0.251-1.425-0.666-2.018-1.219c-0.495-0.491-0.768-1.204-0.744-1.942c0.002-0.402,0.084-0.798,0.239-1.16
			c0.159-0.35,0.382-0.658,0.655-0.907c0.287-0.273,0.621-0.477,0.982-0.597c0.401-0.154,0.824-0.229,1.248-0.219
			c0.438-0.005,0.875,0.046,1.302,0.15c0.278,0.081,0.547,0.195,0.801,0.344l-0.297,0.688c-0.221-0.151-0.461-0.267-0.712-0.344
			c-0.373-0.133-0.763-0.197-1.156-0.189c-0.373-0.012-0.745,0.052-1.098,0.189c-0.265,0.114-0.507,0.285-0.713,0.503
			c-0.166,0.201-0.296,0.434-0.385,0.688c-0.082,0.229-0.123,0.475-0.119,0.722c-0.022,0.573,0.172,1.129,0.536,1.535
			c0.503,0.465,1.077,0.826,1.695,1.065c0.401,0.169,0.788,0.38,1.155,0.628c0.31,0.204,0.599,0.448,0.863,0.722
			c0.22,0.245,0.391,0.537,0.505,0.859c0.121,0.36,0.181,0.742,0.177,1.126c0.003,0.416-0.068,0.832-0.208,1.219
			c-0.145,0.396-0.37,0.747-0.659,1.029c-0.314,0.301-0.678,0.534-1.071,0.688c-0.48,0.172-0.982,0.255-1.487,0.247
			c-0.239-0.006-0.476-0.027-0.713-0.064c-0.24-0.035-0.478-0.086-0.712-0.153c-0.224-0.064-0.442-0.147-0.655-0.25
			c-0.176-0.075-0.345-0.169-0.504-0.284L32.623,25.269z M39.75,18.317l1.278,4.667c0.119,0.468,0.238,0.94,0.359,1.349
			c0.118,0.408,0.207,0.859,0.296,1.222h0.058c0.089-0.373,0.207-0.781,0.327-1.222c0.119-0.438,0.265-0.859,0.417-1.349
			l1.502-4.667h0.712l1.456,4.608c0.15,0.502,0.297,0.969,0.416,1.407c0.12,0.44,0.239,0.859,0.327,1.222h0.058
			c0.089-0.408,0.178-0.816,0.297-1.222c0.12-0.403,0.24-0.859,0.385-1.378l1.357-4.637h0.771l-2.555,8.207h-0.609l-1.459-4.577
			c-0.149-0.499-0.299-0.969-0.448-1.407c-0.119-0.43-0.239-0.907-0.328-1.38h-0.031c-0.106,0.477-0.235,0.947-0.385,1.409
			c-0.148,0.438-0.297,0.908-0.445,1.41l-1.511,4.545H41.34l-2.361-8.207H39.75z M51.424,18.317h0.771v8.207h-0.771V18.317z
			 M51.127,15.812c-0.005-0.394,0.279-0.718,0.632-0.722c0.008,0,0.016,0,0.022,0c0.359,0.008,0.653,0.319,0.679,0.717
			c0,0.194-0.075,0.379-0.209,0.503c-0.13,0.127-0.298,0.194-0.473,0.189c-0.172-0.002-0.339-0.069-0.473-0.189
			c-0.118-0.135-0.185-0.314-0.19-0.503L51.127,15.812z"/>
		<path id="path" fill="#C1272D" d="M27.719,14.66c-0.059-0.323-0.159-0.636-0.297-0.928c-0.146-0.285-0.326-0.547-0.536-0.777
			c-0.217-0.232-0.468-0.422-0.744-0.559c-0.272-0.15-0.563-0.254-0.862-0.31c-0.297-0.061-0.624-0.061-0.921-0.095h-7.338
			c-0.228,0.003-0.456,0.023-0.682,0.061c-0.225,0.027-0.445,0.09-0.655,0.185c-0.058,0.03-0.15,0.06-0.208,0.095
			c-0.199,0.115-0.389,0.25-0.566,0.403c-0.058,0.061-0.12,0.095-0.177,0.155c-0.219,0.222-0.4,0.485-0.535,0.777
			c-0.146,0.287-0.246,0.599-0.297,0.924c-0.044,0.319-0.074,0.641-0.088,0.963v7.435c0,0.322,0.029,0.645,0.088,0.961
			c0.057,0.333,0.157,0.652,0.297,0.953c0.145,0.285,0.326,0.548,0.535,0.779c0.22,0.226,0.473,0.405,0.748,0.537
			c0.272,0.15,0.563,0.252,0.863,0.309c0.296,0.06,0.624,0.06,0.92,0.094h7.096c0.309,0,0.617-0.032,0.921-0.094
			c0.3-0.057,0.59-0.158,0.862-0.309c0.269-0.15,0.519-0.339,0.744-0.559c0.217-0.215,0.398-0.473,0.536-0.758
			c0.146-0.29,0.247-0.604,0.297-0.932c0.044-0.325,0.074-0.655,0.088-0.982v-7.367C27.808,15.299,27.777,14.977,27.719,14.66z
			 M25.608,23.95c-0.644-1.318-1.838-0.916-2.446-0.649c-1.249,0.752-2.962,0.829-4.688,0.056c-1.339-0.593-2.487-1.622-3.298-2.95
			c0.375,0.313,0.784,0.573,1.218,0.777c1.78,0.859,3.563,0.812,4.815,0l0,0c-1.65-1.394-3.137-3.012-4.426-4.818
			c-0.223-0.263-0.422-0.551-0.593-0.859c1.355,1.269,2.796,2.418,4.31,3.438c-1.102-1.236-2.115-2.567-3.032-3.979
			c1.529,1.625,3.208,3.066,5.008,4.297l0.192,0.12c0.052-0.141,0.098-0.284,0.135-0.43c0.417-1.586-0.058-3.386-1.098-4.877
			c2.408,1.521,3.852,4.383,3.24,6.775c0,0.064-0.03,0.129-0.05,0.191l0.02,0.023C26.085,22.613,25.758,24.259,25.608,23.95z"/>
	</g>
</g>
</svg>
