<?xml version="1.0" encoding="utf-8"?>
<!-- Generator: Adobe Illustrator 16.0.0, SVG Export Plug-In . SVG Version: 6.00 Build 0)  -->
<!DOCTYPE svg PUBLIC "-//W3C//DTD SVG 1.1//EN" "http://www.w3.org/Graphics/SVG/1.1/DTD/svg11.dtd">
<svg version="1.1" id="Layer_1" xmlns="http://www.w3.org/2000/svg" xmlns:xlink="http://www.w3.org/1999/xlink" x="0px" y="0px"
	 width="264px" height="40px" viewBox="0 0 264 40" enable-background="new 0 0 264 40" xml:space="preserve">
<g>
	<g>
		<path fill="#131313" d="M64.651,42.911h-2.276l2.367,2.493v1.188h-4.876v-1.39h2.367l-2.367-2.494V41.52h4.786v1.392H64.651z
			 M58.899,42.911h-2.277l2.367,2.493v1.188h-4.877v-1.39h2.368l-2.368-2.494V41.52h4.787V42.911z M53.203,42.967h-2.457v2.176
			h2.457v1.448h-4.204V41.52h4.204V42.967z"/>
		<path fill="#1572B6" d="M45.652,76.08l-2.497-27.174h27.432l-2.5,27.168l-11.233,3.023L45.652,76.08z"/>
		<path fill="#33A9DC" d="M56.871,76.787l9.077-2.441l2.135-23.217H56.871V76.787L56.871,76.787z"/>
		<path fill="#FFFFFF" d="M56.871,60.973h4.544l0.314-3.412h-4.858v-3.332h8.611L65.4,55.123l-0.844,9.184h-7.685V60.973z"/>
		<path fill="#EBEBEB" d="M56.892,69.627l-0.015,0.004l-3.825-1.002l-0.245-2.656H49.36l0.481,5.23l7.034,1.896l0.016-0.004
			L56.892,69.627L56.892,69.627z"/>
		<path fill="#FFFFFF" d="M61.123,64.164l-0.413,4.463l-3.83,1.004V73.1l7.04-1.896l0.052-0.563l0.598-6.477H61.123L61.123,64.164z"
			/>
		<path fill="#EBEBEB" d="M56.883,54.227v3.334h-8.295l-0.069-0.75l-0.156-1.688l-0.083-0.896H56.883z M56.871,60.973v3.334h-3.776
			l-0.069-0.748l-0.157-1.691l-0.083-0.895H56.871z"/>
	</g>
	<g>
		<path fill="#F0DB4F" d="M78.371,43.768V76.02h35.841V43.768H78.371z M97.329,71.248c-0.529,0.969-1.539,1.605-2.709,1.91
			c-1.798,0.373-3.518,0.16-4.797-0.531c-0.856-0.473-1.525-1.199-1.979-2.037l2.729-1.506c0.024,0.01,0.096,0.127,0.191,0.277
			c0.348,0.525,0.648,0.895,1.238,1.156c0.58,0.178,1.853,0.293,2.344-0.627c0.3-0.465,0.205-1.969,0.205-3.627
			c0-2.609,0.013-5.209,0.013-7.791h3.357c0,2.838,0.018,5.527,0,8.295C97.93,68.469,98.094,69.982,97.329,71.248z M111.257,70.396
			c-1.166,3.592-7.674,3.709-10.273,1.336c-0.549-0.561-0.895-0.854-1.222-1.496c1.382-0.715,1.382-0.715,2.728-1.414
			c0.729,1.008,1.404,1.564,2.619,1.793c1.648,0.18,3.307-0.33,2.934-1.904c-0.381-1.285-3.373-1.6-5.41-2.977
			c-2.068-1.248-2.553-4.283-0.853-6.021c0.566-0.642,1.533-1.12,2.544-1.351l1.059-0.123c2.029-0.037,3.299,0.445,4.23,1.382
			c0.26,0.235,0.471,0.491,0.866,1.042c-1.082,0.621-1.077,0.615-2.629,1.52c-0.33-0.643-0.879-1.045-1.458-1.221
			c-0.9-0.244-2.037,0.021-2.273,0.877c-0.08,0.268-0.064,0.512,0.066,0.947c0.363,0.748,1.59,1.074,2.688,1.529
			c3.162,1.154,4.229,2.391,4.494,3.865C111.62,69.451,111.304,70.273,111.257,70.396z"/>
	</g>
	<g>
		<path fill="#E44D26" d="M7.377,75.92L4.876,48.305h27.485l-2.504,27.611l-11.255,3.072L7.377,75.92z"/>
		<path fill="#F16529" d="M18.618,76.641l9.094-2.482l2.14-23.596H18.618V76.641z"/>
		<path fill="#EBEBEB" d="M18.618,60.805h-4.553l-0.314-3.469h4.867v-3.387H9.99l0.082,0.908l0.846,9.334h7.7V60.805z
			 M18.618,69.602l-0.015,0.004l-3.832-1.021l-0.245-2.697h-3.455l0.482,5.314l7.048,1.928l0.016-0.006L18.618,69.602L18.618,69.602
			z"/>
		<path d="M7.433,40.799h1.748V42.5h1.6v-1.701h1.749v5.149h-1.749v-1.724h-1.6v1.725H7.433V40.799z M14.829,42.507h-1.54v-1.708
			h4.828v1.708h-1.54v3.441h-1.748V42.507z M18.884,40.799h1.823l1.122,1.811l1.12-1.811h1.824v5.149h-1.741v-2.552l-1.203,1.83
			h-0.03l-1.204-1.83v2.552h-1.71L18.884,40.799L18.884,40.799z M25.644,40.799h1.749v3.448h2.459v1.702h-4.208V40.799z"/>
		<path fill="#FFFFFF" d="M18.607,60.805v3.387h4.237l-0.399,4.393l-3.837,1.02v3.525l7.053-1.926l0.052-0.572l0.809-8.916
			l0.083-0.908h-0.927h-7.071V60.805z M18.607,53.949v3.387h8.311l0.069-0.762l0.157-1.717l0.083-0.908H18.607z"/>
	</g>
	<g>
		<path fill="#646464" d="M136.467,58.999c0-1.272-0.361-1.925-1.088-1.961c-0.289-0.015-0.57,0.032-0.846,0.138
			c-0.22,0.079-0.366,0.156-0.444,0.234v3.037c0.466,0.291,0.878,0.426,1.237,0.404C136.086,60.803,136.467,60.186,136.467,58.999z
			 M137.361,59.053c0,0.646-0.15,1.182-0.457,1.607c-0.34,0.484-0.811,0.732-1.412,0.746c-0.453,0.014-0.922-0.129-1.403-0.426v2.76
			l-0.777-0.277v-6.126c0.127-0.155,0.291-0.291,0.49-0.405c0.465-0.27,1.026-0.408,1.69-0.416l0.01,0.012
			c0.605-0.008,1.072,0.24,1.4,0.746C137.209,57.734,137.361,58.328,137.361,59.053z"/>
		<path fill="#646464" d="M142.119,60.863c0,0.867-0.088,1.469-0.262,1.803c-0.174,0.332-0.506,0.6-0.996,0.799
			c-0.398,0.156-0.828,0.24-1.289,0.256l-0.129-0.49c0.469-0.064,0.799-0.129,0.99-0.191c0.377-0.129,0.637-0.324,0.777-0.586
			c0.115-0.215,0.17-0.621,0.17-1.227v-0.201c-0.531,0.24-1.09,0.361-1.672,0.361c-0.385,0-0.723-0.121-1.014-0.361
			c-0.326-0.264-0.49-0.598-0.49-1.002v-3.239l0.779-0.267v3.26c0,0.349,0.111,0.617,0.336,0.805
			c0.227,0.189,0.516,0.279,0.873,0.271c0.357-0.006,0.74-0.146,1.146-0.416v-3.803h0.777v4.229H142.119z"/>
		<path fill="#646464" d="M145.156,61.365c-0.092,0.008-0.178,0.01-0.256,0.01c-0.439,0-0.783-0.104-1.029-0.314
			c-0.244-0.209-0.367-0.5-0.367-0.871v-3.065h-0.531v-0.489h0.531v-1.302l0.779-0.276v1.578h0.873v0.488h-0.873v3.044
			c0,0.292,0.078,0.499,0.234,0.62c0.135,0.102,0.348,0.158,0.639,0.17V61.365L145.156,61.365z"/>
		<path fill="#646464" d="M149.869,61.301h-0.777v-3.005c0-0.306-0.07-0.567-0.215-0.789c-0.164-0.249-0.393-0.372-0.686-0.372
			c-0.355,0-0.803,0.188-1.338,0.564v3.602h-0.779v-7.182l0.779-0.246v3.271c0.496-0.362,1.041-0.543,1.631-0.543
			c0.412,0,0.746,0.139,1.002,0.416c0.256,0.276,0.383,0.621,0.383,1.033V61.301L149.869,61.301z"/>
		<path fill="#646464" d="M154.006,58.877c0-0.488-0.092-0.893-0.275-1.212c-0.221-0.39-0.563-0.595-1.023-0.616
			c-0.854,0.049-1.277,0.661-1.277,1.833c0,0.537,0.088,0.986,0.268,1.347c0.229,0.459,0.57,0.686,1.025,0.678
			C153.578,60.9,154.006,60.223,154.006,58.877z M154.859,58.882c0,0.696-0.178,1.275-0.533,1.737
			c-0.391,0.52-0.932,0.777-1.621,0.777c-0.682,0-1.215-0.258-1.598-0.777c-0.35-0.461-0.523-1.041-0.523-1.737
			c0-0.653,0.189-1.204,0.566-1.651c0.396-0.477,0.92-0.713,1.566-0.713c0.645,0,1.172,0.237,1.576,0.713
			C154.67,57.678,154.859,58.229,154.859,58.882z"/>
		<path fill="#646464" d="M159.322,61.301h-0.779v-3.175c0-0.349-0.104-0.62-0.314-0.815c-0.209-0.195-0.488-0.291-0.836-0.283
			c-0.369,0.008-0.723,0.129-1.057,0.363v3.91h-0.777v-4.007c0.447-0.325,0.859-0.54,1.236-0.64
			c0.355-0.092,0.668-0.139,0.938-0.139c0.186,0,0.359,0.019,0.521,0.055c0.307,0.07,0.555,0.201,0.746,0.394
			c0.213,0.214,0.32,0.47,0.32,0.767L159.322,61.301L159.322,61.301z"/>
		
			<linearGradient id="SVGID_1_" gradientUnits="userSpaceOnUse" x1="3352.3584" y1="-2240.7031" x2="3382.8369" y2="-2266.9258" gradientTransform="matrix(0.1759 0 0 -0.1775 -469.1299 -343.327)">
			<stop  offset="0" style="stop-color:#5A9FD4"/>
			<stop  offset="1" style="stop-color:#306998"/>
		</linearGradient>
		<path fill="url(#SVGID_1_)" d="M125.623,54.146c-0.399,0.002-0.782,0.037-1.119,0.097c-0.991,0.175-1.172,0.542-1.172,1.218v0.893
			h2.343v0.297h-3.222c-0.681,0-1.276,0.41-1.463,1.188c-0.216,0.894-0.226,1.45,0,2.382c0.166,0.693,0.563,1.188,1.245,1.188h0.805
			v-1.07c0-0.773,0.669-1.456,1.464-1.456h2.341c0.65,0,1.17-0.536,1.17-1.19v-2.23c0-0.635-0.535-1.111-1.17-1.218
			C126.44,54.176,126.022,54.145,125.623,54.146z M124.356,54.866c0.242,0,0.438,0.2,0.438,0.448c0,0.246-0.196,0.445-0.438,0.445
			c-0.243,0-0.439-0.199-0.439-0.445C123.917,55.066,124.113,54.866,124.356,54.866z"/>
		
			<linearGradient id="SVGID_2_" gradientUnits="userSpaceOnUse" x1="3394.7002" y1="-2282.8008" x2="3383.8174" y2="-2267.4033" gradientTransform="matrix(0.1759 0 0 -0.1775 -469.1299 -343.327)">
			<stop  offset="0" style="stop-color:#FFD43B"/>
			<stop  offset="1" style="stop-color:#FFE873"/>
		</linearGradient>
		<path fill="url(#SVGID_2_)" d="M128.308,56.65v1.041c0,0.807-0.685,1.486-1.463,1.486h-2.341c-0.642,0-1.172,0.549-1.172,1.189
			V62.6c0,0.633,0.554,1.008,1.172,1.188c0.741,0.219,1.452,0.258,2.341,0c0.59-0.17,1.17-0.514,1.17-1.188v-0.895h-2.34v-0.299
			h3.512c0.682,0,0.936-0.475,1.172-1.188c0.244-0.734,0.234-1.438,0-2.381c-0.168-0.678-0.489-1.188-1.172-1.188H128.308
			L128.308,56.65z M126.991,62.301c0.242,0,0.439,0.197,0.439,0.443s-0.197,0.447-0.439,0.447s-0.439-0.201-0.439-0.447
			S126.749,62.301,126.991,62.301z"/>
		
			<radialGradient id="SVGID_3_" cx="-5723.5947" cy="-1419.1729" r="8.114" gradientTransform="matrix(0 -0.075 -0.3297 0 -342.2239 -364.0081)" gradientUnits="userSpaceOnUse">
			<stop  offset="0" style="stop-color:#B8B8B8;stop-opacity:0.498"/>
			<stop  offset="1" style="stop-color:#7F7F7F;stop-opacity:0"/>
		</radialGradient>
		<path opacity="0.444" fill="url(#SVGID_3_)" enable-background="new    " d="M128.841,65.305c0,0.336-1.404,0.607-3.139,0.607
			s-3.141-0.271-3.141-0.607s1.406-0.607,3.141-0.607C127.435,64.697,128.841,64.969,128.841,65.305z"/>
	</g>
	<g>
		<path fill="#00618A" d="M168.123,62.414h1.283v-5.068l1.988,4.42c0.232,0.535,0.555,0.725,1.184,0.725
			c0.631,0,0.939-0.189,1.174-0.725l1.986-4.42v5.068h1.285v-5.061c0-0.494-0.197-0.731-0.605-0.854
			c-0.975-0.306-1.629-0.041-1.926,0.617l-1.951,4.36l-1.889-4.36c-0.283-0.658-0.949-0.923-1.926-0.618
			c-0.406,0.124-0.604,0.361-0.604,0.855V62.414L168.123,62.414z M178.092,58.289h1.283v2.793c-0.012,0.15,0.049,0.508,0.752,0.52
			c0.357,0.006,2.77,0,2.791,0v-3.326h1.287c0.006,0-0.002,4.535-0.002,4.555c0.008,1.119-1.387,1.361-2.031,1.381h-4.053v-0.863
			c0.006,0,4.051,0,4.061,0c0.826-0.088,0.729-0.498,0.729-0.637v-0.338h-2.729c-1.27-0.012-2.078-0.564-2.088-1.203
			C178.092,61.111,178.119,58.316,178.092,58.289L178.092,58.289z"/>
		<path fill="#E48E00" d="M185.193,62.414h3.691c0.434,0,0.854-0.09,1.186-0.246c0.557-0.256,0.828-0.602,0.828-1.055v-0.938
			c0-0.371-0.311-0.717-0.914-0.945c-0.32-0.125-0.717-0.189-1.1-0.189h-1.555c-0.52,0-0.766-0.156-0.828-0.502
			c-0.012-0.041-0.012-0.074-0.012-0.115V57.84c0-0.033,0-0.066,0.012-0.107c0.063-0.264,0.197-0.336,0.654-0.379l0.125-0.008h3.666
			v-0.854h-3.604c-0.52,0-0.791,0.032-1.037,0.106c-0.766,0.238-1.1,0.616-1.1,1.275v0.748c0,0.576,0.654,1.07,1.752,1.186
			c0.125,0.008,0.248,0.018,0.371,0.018h1.334c0.049,0,0.098,0,0.135,0.008c0.408,0.033,0.58,0.107,0.705,0.255
			c0.074,0.074,0.098,0.147,0.098,0.229v0.75c0,0.09-0.061,0.205-0.186,0.305c-0.109,0.1-0.295,0.164-0.543,0.182l-0.135,0.008
			h-3.545V62.414z M198.908,60.926c0,0.881,0.654,1.375,1.975,1.473c0.123,0.008,0.246,0.018,0.369,0.018h3.346v-0.855h-3.369
			c-0.754,0-1.037-0.189-1.037-0.643V56.49h-1.283V60.926L198.908,60.926z M191.717,60.971v-3.053c0-0.773,0.545-1.245,1.621-1.395
			c0.111-0.017,0.236-0.023,0.346-0.023h2.438c0.125,0,0.236,0.008,0.359,0.023c1.076,0.148,1.621,0.619,1.621,1.395v3.053
			c0,0.629-0.232,0.965-0.766,1.186l1.266,1.141h-1.49l-1.023-0.924l-1.027,0.064h-1.375c-0.234,0-0.48-0.031-0.754-0.105
			C192.113,62.109,191.717,61.68,191.717,60.971z M193.104,60.896c0,0.041,0.012,0.082,0.021,0.133
			c0.074,0.354,0.41,0.551,0.916,0.551h1.166l-1.068-0.967h1.488l0.936,0.844c0.174-0.092,0.287-0.23,0.326-0.412
			c0.012-0.041,0.012-0.082,0.012-0.123v-2.928c0-0.032,0-0.074-0.012-0.115c-0.074-0.33-0.408-0.52-0.904-0.52h-1.941
			c-0.568,0-0.939,0.246-0.939,0.635V60.896L193.104,60.896z"/>
		<path fill="#00618A" d="M205.729,55.068c-0.789-0.021-1.395,0.053-1.908,0.27c-0.146,0.063-0.381,0.063-0.404,0.247
			c0.08,0.085,0.094,0.211,0.158,0.313c0.123,0.199,0.33,0.467,0.516,0.605c0.201,0.153,0.41,0.316,0.629,0.449
			c0.385,0.234,0.816,0.37,1.189,0.605c0.219,0.14,0.436,0.313,0.65,0.471c0.104,0.078,0.176,0.199,0.313,0.248v-0.022
			c-0.072-0.092-0.092-0.218-0.158-0.313l-0.291-0.293c-0.283-0.379-0.646-0.711-1.031-0.986c-0.309-0.221-0.994-0.518-1.121-0.875
			l-0.023-0.021c0.219-0.024,0.473-0.104,0.674-0.158c0.338-0.09,0.639-0.066,0.986-0.156l0.473-0.135v-0.09
			c-0.176-0.181-0.303-0.42-0.494-0.584c-0.502-0.428-1.051-0.854-1.615-1.211c-0.314-0.197-0.701-0.326-1.033-0.494
			c-0.111-0.057-0.307-0.086-0.381-0.18c-0.176-0.222-0.27-0.504-0.404-0.763c-0.281-0.542-0.559-1.136-0.809-1.706
			c-0.17-0.389-0.281-0.773-0.492-1.122c-1.02-1.675-2.117-2.687-3.816-3.681c-0.359-0.211-0.797-0.295-1.256-0.404l-0.74-0.045
			c-0.148-0.063-0.307-0.247-0.447-0.336c-0.564-0.355-2.008-1.129-2.426-0.112c-0.264,0.642,0.396,1.269,0.631,1.593
			c0.162,0.229,0.375,0.484,0.492,0.74c0.076,0.169,0.092,0.338,0.156,0.518c0.162,0.438,0.305,0.916,0.518,1.324
			c0.105,0.205,0.225,0.422,0.357,0.605c0.082,0.111,0.227,0.162,0.246,0.336c-0.139,0.193-0.145,0.495-0.225,0.74
			c-0.35,1.105-0.217,2.48,0.293,3.299c0.156,0.251,0.525,0.79,1.031,0.583c0.443-0.181,0.346-0.74,0.473-1.233
			c0.029-0.111,0.01-0.195,0.066-0.27v0.023l0.404,0.807c0.299,0.482,0.83,0.984,1.279,1.324c0.23,0.176,0.416,0.48,0.719,0.584
			V55.54h-0.023c-0.059-0.091-0.148-0.128-0.225-0.202c-0.176-0.172-0.371-0.386-0.516-0.583c-0.408-0.555-0.771-1.163-1.102-1.795
			c-0.154-0.302-0.293-0.635-0.426-0.942c-0.051-0.119-0.051-0.299-0.156-0.358c-0.145,0.226-0.357,0.407-0.473,0.673
			c-0.18,0.425-0.203,0.943-0.27,1.48l-0.045,0.022c-0.313-0.075-0.422-0.397-0.539-0.673c-0.293-0.698-0.348-1.822-0.088-2.625
			c0.066-0.208,0.367-0.863,0.246-1.055c-0.059-0.192-0.252-0.303-0.359-0.449c-0.133-0.182-0.268-0.419-0.359-0.629
			c-0.24-0.543-0.352-1.154-0.604-1.704c-0.121-0.263-0.326-0.529-0.494-0.763c-0.188-0.26-0.396-0.451-0.537-0.764
			c-0.055-0.111-0.121-0.289-0.047-0.404c0.023-0.076,0.061-0.108,0.137-0.135c0.129-0.1,0.492,0.034,0.627,0.09
			c0.361,0.149,0.66,0.293,0.965,0.494c0.146,0.098,0.295,0.285,0.473,0.336h0.201c0.316,0.073,0.67,0.022,0.965,0.112
			c0.521,0.159,0.99,0.405,1.414,0.674c1.293,0.817,2.352,1.979,3.074,3.366c0.117,0.223,0.168,0.436,0.27,0.673
			c0.207,0.478,0.467,0.97,0.672,1.437c0.207,0.467,0.406,0.937,0.697,1.324c0.152,0.205,0.742,0.313,1.01,0.426
			c0.188,0.08,0.494,0.162,0.672,0.27c0.34,0.205,0.67,0.449,0.988,0.674C205.213,54.621,205.703,54.867,205.729,55.068
			L205.729,55.068z M195.697,46.52c-0.164-0.002-0.281,0.019-0.404,0.045v0.022h0.021c0.08,0.162,0.217,0.265,0.313,0.404
			l0.227,0.471l0.021-0.022c0.141-0.098,0.201-0.254,0.201-0.494c-0.057-0.059-0.063-0.131-0.109-0.201
			C195.902,46.65,195.777,46.598,195.697,46.52z"/>
	</g>
</g>
<g>
	<g>
		<path fill="#003A2B" d="M258.26,58.615c0,1.188-0.969,2.156-2.156,2.156h-34.75c-1.188,0-2.156-0.969-2.156-2.156V46.24
			c0-1.188,0.969-2.156,2.156-2.156h34.75c1.188,0,2.156,0.969,2.156,2.156V58.615z"/>
		<path fill="#FFFFFF" d="M225.916,46.678h1.875v8.563c-0.938,0.188-1.656,0.25-2.406,0.25c-2.25,0-3.438-1.031-3.438-2.969
			c0-1.875,1.25-3.125,3.188-3.125c0.313,0,0.531,0.031,0.813,0.094v-2.813H225.916z M225.916,50.99
			c-0.219-0.063-0.406-0.094-0.625-0.094c-0.938,0-1.469,0.563-1.469,1.594c0,1,0.531,1.531,1.469,1.531
			c0.219,0,0.375,0,0.625-0.063V50.99z M230.729,49.553v4.281c0,1.469-0.094,2.188-0.438,2.813c-0.313,0.594-0.688,0.969-1.5,1.375
			l-1.719-0.813c0.813-0.375,1.219-0.719,1.469-1.25s0.344-1.156,0.344-2.75v-3.656H230.729z M228.885,46.709h1.844v1.906h-1.844
			V46.709z M231.854,49.959c0.813-0.375,1.594-0.563,2.438-0.563c0.938,0,1.563,0.25,1.844,0.75
			c0.156,0.281,0.219,0.625,0.219,1.406v3.75c-0.844,0.125-1.875,0.219-2.656,0.219c-1.563,0-2.25-0.531-2.25-1.75
			c0-1.313,0.938-1.906,3.188-2.094v-0.406c0-0.344-0.156-0.469-0.625-0.469c-0.688,0-1.469,0.188-2.188,0.563v-1.406H231.854z
			 M234.729,52.896c-1.219,0.125-1.625,0.313-1.625,0.781c0,0.375,0.219,0.531,0.719,0.531c0.281,0,0.531-0.031,0.875-0.094v-1.219
			H234.729z M237.26,49.834c1.094-0.281,2-0.406,2.906-0.406c0.938,0,1.625,0.219,2.031,0.625c0.375,0.406,0.5,0.844,0.5,1.75v3.625
			h-1.844v-3.563c0-0.719-0.25-0.969-0.906-0.969c-0.25,0-0.469,0.031-0.844,0.125v4.406h-1.844V49.834z M243.416,56.428
			c0.656,0.344,1.313,0.5,1.969,0.5c1.219,0,1.719-0.5,1.719-1.656V55.24c-0.375,0.188-0.719,0.25-1.188,0.25
			c-1.625,0-2.656-1.063-2.656-2.75c0-2.094,1.531-3.281,4.219-3.281c0.781,0,1.531,0.094,2.406,0.25l-0.625,1.344
			c-0.5-0.094-0.031,0-0.406-0.063v0.188l0.031,0.781v1c0,0.25,0,0.5,0.031,0.75v0.5c0,1.594-0.125,2.344-0.531,2.938
			c-0.563,0.906-1.563,1.344-3,1.344c-0.719,0-1.344-0.094-2-0.375v-1.688H243.416z M247.104,50.928h-0.188
			c-0.375,0-0.781,0.094-1.063,0.25c-0.438,0.25-0.688,0.719-0.688,1.344c0,0.938,0.469,1.469,1.281,1.469
			c0.25,0,0.469-0.063,0.688-0.125v-2.938H247.104z M252.791,49.396c1.844,0,2.969,1.156,2.969,3.063
			c0,1.938-1.188,3.156-3.063,3.156c-1.844,0-3-1.156-3-3.031C249.729,50.615,250.916,49.396,252.791,49.396z M252.76,54.084
			c0.719,0,1.125-0.594,1.125-1.625c0-1-0.406-1.625-1.125-1.625s-1.156,0.594-1.156,1.625
			C251.635,53.521,252.041,54.084,252.76,54.084z"/>
	</g>
</g>
<g>
	<title>Artboard 6</title>
	<g id="plain-wordmark">
		<path fill="#C1272D" d="M234.525,85.389h-3.447V84.92c0-0.374,0.031-0.752,0.057-1.126c0.023-0.329,0.104-0.647,0.238-0.94
			c0.121-0.252,0.295-0.468,0.506-0.629c0.271-0.17,0.578-0.256,0.891-0.248c0.189,0,0.379,0.021,0.566,0.064
			c0.148,0.064,0.265,0.094,0.385,0.154l0.238-0.627c-0.152-0.079-0.311-0.143-0.475-0.189c-0.211-0.066-0.433-0.098-0.654-0.094
			c-0.412-0.016-0.82,0.082-1.189,0.283c-0.317,0.189-0.592,0.456-0.801,0.781c-0.195,0.358-0.338,0.75-0.417,1.16
			c-0.087,0.475-0.126,0.957-0.119,1.439v0.469h-1.128v0.628h1.128v7.583h0.771v-7.613h3.447v5.198
			c-0.002,0.35,0.027,0.696,0.088,1.037c0.035,0.29,0.125,0.569,0.268,0.816c0.126,0.23,0.313,0.419,0.534,0.531
			c0.282,0.135,0.585,0.199,0.891,0.191c0.354,0.013,0.708-0.052,1.04-0.191l-0.089-0.625c-0.118,0.037-0.237,0.069-0.358,0.094
			c-0.166,0.026-0.336,0.037-0.505,0.029c-0.335,0.035-0.661-0.129-0.862-0.43c-0.174-0.39-0.256-0.821-0.238-1.254v-5.367h2.188
			v-0.624h-2.169v-1.816l-0.771,0.248L234.525,85.389z M234.557,85.389L234.557,85.389z M234.588,86.016L234.588,86.016z
			 M207.623,92.374c0.328,0.242,0.689,0.422,1.07,0.535c0.415,0.137,0.846,0.212,1.279,0.217c0.685,0.049,1.361-0.185,1.902-0.657
			c0.443-0.433,0.693-1.062,0.682-1.719c0.02-0.586-0.16-1.158-0.504-1.602c-0.475-0.507-1.043-0.892-1.664-1.128
			c-0.738-0.251-1.426-0.666-2.019-1.219c-0.495-0.491-0.768-1.204-0.744-1.942c0.002-0.402,0.084-0.798,0.239-1.16
			c0.159-0.35,0.383-0.658,0.654-0.906c0.287-0.273,0.621-0.477,0.982-0.598c0.402-0.154,0.824-0.229,1.248-0.219
			c0.438-0.006,0.875,0.045,1.303,0.15c0.277,0.08,0.547,0.195,0.801,0.344l-0.297,0.688c-0.221-0.151-0.461-0.268-0.713-0.344
			c-0.373-0.134-0.763-0.197-1.155-0.189c-0.373-0.012-0.745,0.053-1.098,0.189c-0.265,0.113-0.507,0.284-0.713,0.502
			c-0.165,0.201-0.296,0.435-0.386,0.688c-0.082,0.229-0.122,0.475-0.119,0.723c-0.021,0.572,0.172,1.129,0.536,1.534
			c0.503,0.465,1.077,0.826,1.695,1.065c0.401,0.169,0.788,0.38,1.155,0.628c0.31,0.204,0.6,0.448,0.863,0.722
			c0.219,0.245,0.391,0.537,0.504,0.859c0.121,0.36,0.182,0.742,0.178,1.126c0.003,0.416-0.068,0.832-0.209,1.219
			c-0.145,0.396-0.369,0.747-0.658,1.029c-0.314,0.301-0.678,0.534-1.07,0.688c-0.48,0.172-0.982,0.255-1.487,0.247
			c-0.239-0.006-0.476-0.027-0.713-0.064c-0.239-0.035-0.478-0.086-0.712-0.153c-0.225-0.064-0.443-0.147-0.656-0.25
			c-0.176-0.075-0.345-0.169-0.504-0.284L207.623,92.374z M214.75,85.422l1.277,4.667c0.119,0.468,0.238,0.94,0.359,1.349
			c0.117,0.408,0.207,0.859,0.296,1.222h0.058c0.09-0.373,0.207-0.781,0.328-1.222c0.119-0.438,0.265-0.859,0.416-1.349l1.502-4.667
			h0.713l1.455,4.608c0.15,0.502,0.298,0.969,0.416,1.407c0.12,0.44,0.239,0.859,0.327,1.222h0.058
			c0.09-0.408,0.178-0.816,0.297-1.222c0.12-0.403,0.24-0.859,0.386-1.378l1.356-4.638h0.771l-2.555,8.207h-0.609l-1.459-4.577
			c-0.149-0.499-0.299-0.969-0.447-1.407c-0.119-0.43-0.239-0.907-0.328-1.38h-0.031c-0.105,0.477-0.234,0.947-0.385,1.409
			c-0.148,0.438-0.298,0.908-0.445,1.41l-1.512,4.545h-0.654l-2.361-8.207H214.75z M226.424,85.422h0.771v8.207h-0.771V85.422z
			 M226.127,82.918c-0.004-0.395,0.279-0.719,0.633-0.723c0.008,0,0.016,0,0.022,0c0.358,0.008,0.653,0.318,0.679,0.717
			c0,0.195-0.074,0.379-0.209,0.504c-0.13,0.127-0.299,0.193-0.473,0.189c-0.172-0.003-0.34-0.07-0.474-0.189
			c-0.118-0.135-0.185-0.314-0.19-0.504L226.127,82.918z"/>
		<path id="path" fill="#C1272D" d="M202.719,81.766c-0.059-0.323-0.158-0.637-0.297-0.928c-0.145-0.285-0.325-0.548-0.535-0.777
			c-0.217-0.232-0.469-0.422-0.744-0.559c-0.271-0.15-0.563-0.255-0.861-0.311c-0.297-0.061-0.625-0.061-0.922-0.094h-7.338
			c-0.229,0.003-0.456,0.023-0.682,0.061c-0.225,0.027-0.445,0.09-0.654,0.184c-0.059,0.031-0.15,0.061-0.209,0.096
			c-0.199,0.115-0.389,0.25-0.566,0.402c-0.057,0.061-0.119,0.096-0.177,0.156c-0.219,0.221-0.399,0.484-0.535,0.777
			c-0.146,0.286-0.246,0.599-0.297,0.924c-0.044,0.318-0.073,0.641-0.089,0.963v7.435c0,0.322,0.029,0.645,0.089,0.961
			c0.058,0.333,0.157,0.652,0.297,0.953c0.146,0.285,0.325,0.548,0.535,0.779c0.22,0.226,0.474,0.405,0.747,0.537
			c0.273,0.15,0.563,0.252,0.863,0.309c0.297,0.06,0.623,0.06,0.92,0.094h7.096c0.309,0,0.617-0.032,0.922-0.094
			c0.299-0.057,0.59-0.158,0.861-0.309c0.27-0.15,0.52-0.339,0.744-0.559c0.217-0.215,0.398-0.473,0.535-0.758
			c0.146-0.29,0.247-0.604,0.297-0.932c0.045-0.325,0.074-0.655,0.089-0.982v-7.366C202.808,82.404,202.777,82.082,202.719,81.766z
			 M200.608,91.056c-0.644-1.318-1.838-0.916-2.446-0.649c-1.248,0.752-2.963,0.829-4.688,0.056c-1.34-0.593-2.488-1.622-3.299-2.95
			c0.376,0.313,0.785,0.573,1.219,0.777c1.779,0.859,3.563,0.812,4.814,0l0,0c-1.65-1.394-3.137-3.012-4.426-4.818
			c-0.224-0.263-0.422-0.551-0.594-0.859c1.355,1.27,2.797,2.418,4.311,3.438c-1.102-1.236-2.115-2.567-3.031-3.979
			c1.528,1.626,3.207,3.066,5.008,4.298l0.191,0.12c0.053-0.141,0.098-0.284,0.135-0.43c0.417-1.586-0.057-3.387-1.098-4.877
			c2.408,1.521,3.853,4.383,3.24,6.774c0,0.064-0.03,0.129-0.05,0.191l0.02,0.023C201.086,89.719,200.758,91.364,200.608,91.056z"/>
	</g>
</g>
<g>
	<g>
		<ellipse fill="#61DAFB" cx="29.362" cy="15.021" rx="2.787" ry="2.776"/>
		<path fill="#61DAFB" d="M29.362,25.227c2.188,2.119,4.345,3.373,6.083,3.373c0.569,0,1.109-0.119,1.558-0.389
			c1.559-0.895,2.128-3.133,1.588-6.326c-0.09-0.567-0.209-1.134-0.359-1.731c0.599-0.179,1.139-0.358,1.678-0.537
			c3.027-1.164,4.705-2.775,4.705-4.536c0-1.791-1.678-3.402-4.705-4.536c-0.54-0.209-1.079-0.388-1.678-0.538
			c0.15-0.597,0.27-1.164,0.359-1.731c0.51-3.253-0.06-5.521-1.618-6.416c-0.45-0.269-0.989-0.388-1.559-0.388
			c-1.708,0-3.896,1.253-6.083,3.373c-2.158-2.119-4.315-3.373-6.054-3.373c-0.569,0-1.109,0.119-1.558,0.388
			c-1.559,0.895-2.128,3.133-1.588,6.327c0.09,0.567,0.209,1.134,0.359,1.731c-0.599,0.179-1.139,0.358-1.678,0.537
			c-3.027,1.164-4.705,2.775-4.705,4.536c0,1.791,1.678,3.402,4.705,4.537c0.54,0.208,1.079,0.388,1.678,0.537
			c-0.15,0.597-0.27,1.164-0.359,1.73c-0.51,3.193,0.06,5.461,1.588,6.326c0.449,0.27,0.989,0.389,1.558,0.389
			C25.017,28.57,27.174,27.316,29.362,25.227z M27.684,21.197c0.54,0.031,1.109,0.031,1.679,0.031c0.569,0,1.139,0,1.678-0.031
			c-0.54,0.717-1.109,1.373-1.678,2C28.792,22.57,28.223,21.914,27.684,21.197z M23.968,18.125c0.3,0.507,0.569,0.985,0.899,1.462
			c-0.929-0.12-1.798-0.269-2.637-0.448c0.27-0.806,0.569-1.642,0.929-2.477C23.398,17.14,23.668,17.647,23.968,18.125z
			 M22.229,10.932c0.839-0.179,1.708-0.328,2.637-0.448c-0.3,0.478-0.599,0.955-0.899,1.462s-0.569,0.985-0.809,1.492
			C22.769,12.574,22.469,11.738,22.229,10.932z M23.878,15.021c0.39-0.806,0.809-1.612,1.289-2.417
			c0.449-0.776,0.959-1.552,1.468-2.328c0.899-0.06,1.798-0.089,2.728-0.089c0.959,0,1.858,0.03,2.727,0.089
			c0.54,0.776,1.019,1.552,1.468,2.328c0.479,0.806,0.899,1.611,1.289,2.417c-0.39,0.806-0.809,1.611-1.289,2.417
			c-0.449,0.776-0.959,1.552-1.468,2.328c-0.899,0.06-1.798,0.089-2.727,0.089c-0.959,0-1.858-0.03-2.728-0.089
			c-0.54-0.776-1.019-1.552-1.468-2.328C24.687,16.632,24.268,15.827,23.878,15.021z M35.596,13.409l-0.809-1.492
			c-0.3-0.507-0.57-0.985-0.899-1.462c0.929,0.12,1.798,0.269,2.637,0.448C36.255,11.738,35.955,12.574,35.596,13.409z
			 M35.596,16.632c0.359,0.835,0.659,1.671,0.929,2.477c-0.839,0.179-1.708,0.328-2.637,0.448c0.3-0.478,0.6-0.955,0.899-1.462
			C35.056,17.647,35.326,17.14,35.596,16.632z M36.285,26.988c-0.24,0.148-0.539,0.209-0.869,0.209
			c-1.468,0-3.296-1.195-5.094-2.984c0.869-0.926,1.708-1.971,2.547-3.135c1.408-0.119,2.757-0.327,4.016-0.626
			c0.15,0.537,0.24,1.074,0.33,1.61C37.633,24.6,37.304,26.42,36.285,26.988z M37.843,11.26c3.356,0.955,5.364,2.417,5.364,3.761
			c0,1.164-1.378,2.328-3.806,3.253c-0.479,0.179-1.019,0.358-1.559,0.507c-0.39-1.224-0.869-2.477-1.468-3.76
			C36.974,13.737,37.483,12.484,37.843,11.26z M35.446,2.845c0.33,0,0.599,0.06,0.869,0.208c0.989,0.567,1.349,2.358,0.929,4.924
			c-0.09,0.507-0.209,1.044-0.33,1.612c-1.258-0.269-2.607-0.478-4.016-0.627c-0.809-1.164-1.678-2.208-2.547-3.133
			C32.149,4.068,33.977,2.845,35.446,2.845z M31.041,8.843c-0.54-0.03-1.109-0.03-1.678-0.03c-0.57,0-1.139,0-1.679,0.03
			c0.54-0.716,1.109-1.373,1.679-2C29.932,7.47,30.501,8.157,31.041,8.843z M22.439,3.053c0.24-0.149,0.539-0.208,0.869-0.208
			c1.468,0,3.296,1.193,5.094,2.984c-0.869,0.925-1.708,1.969-2.547,3.133c-1.408,0.12-2.757,0.328-4.016,0.627
			c-0.15-0.537-0.24-1.075-0.33-1.612C21.091,5.441,21.42,3.65,22.439,3.053z M20.881,18.781c-3.356-0.955-5.364-2.417-5.364-3.76
			c0-1.164,1.378-2.328,3.806-3.253c0.479-0.179,1.019-0.358,1.559-0.507c0.39,1.224,0.869,2.477,1.468,3.761
			C21.75,16.304,21.241,17.587,20.881,18.781z M21.51,22.063c0.09-0.506,0.21-1.043,0.33-1.61c1.259,0.269,2.607,0.478,4.016,0.626
			c0.81,1.164,1.679,2.209,2.547,3.135c-1.798,1.76-3.626,2.984-5.094,2.984c-0.33,0-0.6-0.061-0.869-0.209
			C21.42,26.42,21.091,24.6,21.51,22.063z M20.251,34.359c0.659-0.807,0.689-1.701,0.33-2.598c-0.359-0.895-1.109-1.313-2.038-1.342
			c-1.109-0.029-2.248,0-3.356,0h-0.21v7.729h0.899v-2.924h1.409c0.18,0,0.33,0.061,0.419,0.209l1.798,2.775
			c0.03,0.061,0.12,0.148,0.18,0.148h1.169c-0.719-1.104-1.409-2.148-2.128-3.223C19.353,35.045,19.892,34.836,20.251,34.359z
			 M15.876,34.299v-2.953h0.33c0.689,0,1.409-0.031,2.098,0.029c0.809,0.029,1.378,0.656,1.378,1.463
			c0,0.805-0.659,1.432-1.468,1.461C17.495,34.33,16.775,34.299,15.876,34.299z M27.474,34.688c-0.479-2.09-2.397-2.627-3.866-1.971
			c-1.139,0.508-1.648,1.492-1.678,2.717c-0.03,0.926,0.24,1.76,0.959,2.387c0.809,0.717,1.798,0.807,2.817,0.627
			c0.569-0.119,1.079-0.387,1.468-0.805c-0.15-0.209-0.3-0.418-0.45-0.598c-0.839,0.717-1.768,0.955-2.787,0.479
			c-0.659-0.33-0.989-1.135-1.049-1.732h4.646v-0.387C27.564,35.135,27.534,34.896,27.474,34.688z M22.949,35.164
			c-0.09-0.895,0.809-1.85,1.798-1.85c1.139-0.029,1.858,0.656,1.888,1.85H22.949z M32.149,32.568
			c-0.449-0.09-0.929-0.119-1.378-0.09c-0.719,0.061-1.349,0.389-1.858,0.926c0.15,0.209,0.27,0.418,0.45,0.656
			c0.06-0.061,0.12-0.119,0.18-0.148c0.479-0.449,1.049-0.688,1.738-0.627c0.539,0.029,1.049,0.209,1.199,0.746
			c0.12,0.418,0.09,0.865,0.12,1.313c-0.09,0-0.12-0.029-0.15-0.059c-0.719-0.598-1.528-0.717-2.397-0.508
			c-0.809,0.209-1.318,0.836-1.378,1.641c-0.06,0.926,0.359,1.611,1.169,1.939c0.509,0.209,1.079,0.209,1.618,0.09
			c0.419-0.09,0.599-0.328,1.199-0.656v0.389h0.839c0-1.195,0.03-2.656,0-4.029C33.498,33.285,32.988,32.748,32.149,32.568z
			 M32.569,36.328c-0.03,0.09,0,0.18,0,0.27c0,0.627-0.15,0.836-0.75,1.074c-0.419,0.148-0.869,0.209-1.318,0.059
			c-0.51-0.148-0.869-0.596-0.869-1.104c-0.03-0.508,0.3-1.014,0.809-1.164c0.689-0.238,1.319-0.09,1.888,0.328
			C32.509,35.941,32.629,36.09,32.569,36.328z M37.244,33.375c0.779-0.24,1.499-0.09,2.038,0.566L39.372,34
			c0.21-0.178,0.39-0.357,0.629-0.566c-0.09-0.09-0.12-0.148-0.18-0.238c-0.869-0.926-2.578-1.045-3.626-0.299
			c-1.468,1.074-1.438,3.164-0.719,4.268c0.689,1.045,1.678,1.402,2.847,1.254c0.689-0.09,1.259-0.418,1.708-0.984
			c-0.209-0.18-0.419-0.359-0.629-0.568c-0.06,0.061-0.09,0.09-0.12,0.15c-0.809,0.895-2.158,0.805-2.877-0.15
			c-0.419-0.566-0.509-1.223-0.39-1.879C36.075,34.24,36.465,33.643,37.244,33.375z M43.478,37.434
			c-0.06,0.029-0.09,0.059-0.09,0.059c-0.24,0.18-0.479,0.209-0.75,0.119c-0.27-0.119-0.3-0.357-0.33-0.596v-3.402
			c0-0.061,0,0.059,0.03-0.238h1.139v-0.896h-1.199v-1.492h-0.899v1.611h-0.779c-0.06,0-0.15,0.061-0.15,0.119
			c-0.03,0.209,0,0.359,0,0.658h0.959v3.818c0,0.479,0.12,0.896,0.54,1.135c0.449,0.27,1.318,0.209,1.708-0.119
			c0.06-0.029,0.09-0.148,0.09-0.18C43.657,37.852,43.567,37.643,43.478,37.434z"/>
	</g>
</g>
</svg>
