<?xml version="1.0" encoding="utf-8"?>
<!-- Generator: Adobe Illustrator 16.0.0, SVG Export Plug-In . SVG Version: 6.00 Build 0)  -->
<!DOCTYPE svg PUBLIC "-//W3C//DTD SVG 1.1//EN" "http://www.w3.org/Graphics/SVG/1.1/DTD/svg11.dtd">
<svg version="1.1" id="Layer_1" xmlns="http://www.w3.org/2000/svg" xmlns:xlink="http://www.w3.org/1999/xlink" x="0px" y="0px"
	 width="264px" height="40px" viewBox="0 0 264 40" enable-background="new 0 0 264 40" xml:space="preserve">
<g>
	<g>
		<path fill="#131313" d="M64.651,3.401h-2.276l2.367,2.493v1.188h-4.876v-1.39h2.367l-2.367-2.494V2.009h4.786v1.392H64.651z
			 M58.899,3.401h-2.277l2.367,2.493v1.188h-4.877v-1.39h2.368l-2.368-2.494V2.009h4.787V3.401z M53.203,3.457h-2.457v2.176h2.457
			v1.448h-4.204V2.009h4.204V3.457z"/>
		<path fill="#1572B6" d="M45.652,36.57L43.155,9.396h27.432l-2.5,27.168l-11.233,3.023L45.652,36.57z"/>
		<path fill="#33A9DC" d="M56.871,37.277l9.077-2.441l2.135-23.217H56.871V37.277L56.871,37.277z"/>
		<path fill="#FFFFFF" d="M56.871,21.463h4.544l0.314-3.412h-4.858v-3.333h8.611L65.4,15.613l-0.844,9.184h-7.685V21.463z"/>
		<path fill="#EBEBEB" d="M56.892,30.117l-0.015,0.004l-3.825-1.002l-0.245-2.656H49.36l0.481,5.23l7.034,1.896l0.016-0.004
			L56.892,30.117L56.892,30.117z"/>
		<path fill="#FFFFFF" d="M61.123,24.654l-0.413,4.463l-3.83,1.004v3.469l7.04-1.896l0.052-0.563l0.598-6.477H61.123L61.123,24.654z
			"/>
		<path fill="#EBEBEB" d="M56.883,14.717v3.333h-8.295l-0.069-0.749l-0.156-1.689l-0.083-0.895H56.883z M56.871,21.463v3.334h-3.776
			l-0.069-0.748l-0.157-1.691l-0.083-0.895H56.871z"/>
	</g>
	<g>
		<path fill="#F0DB4F" d="M78.371,4.258V36.51h35.841V4.258H78.371z M97.329,31.738c-0.529,0.969-1.539,1.605-2.709,1.91
			c-1.798,0.373-3.518,0.16-4.797-0.531c-0.856-0.473-1.525-1.199-1.979-2.037l2.729-1.506c0.024,0.01,0.096,0.127,0.191,0.277
			c0.348,0.525,0.648,0.895,1.238,1.156c0.58,0.178,1.853,0.293,2.344-0.627c0.3-0.465,0.205-1.969,0.205-3.627
			c0-2.609,0.013-5.209,0.013-7.791h3.357c0,2.838,0.018,5.527,0,8.295C97.93,28.959,98.094,30.473,97.329,31.738z M111.257,30.887
			c-1.166,3.592-7.674,3.709-10.273,1.336c-0.549-0.561-0.895-0.854-1.222-1.496c1.382-0.715,1.382-0.715,2.728-1.414
			c0.729,1.008,1.404,1.564,2.619,1.793c1.648,0.18,3.307-0.33,2.934-1.904c-0.381-1.285-3.373-1.6-5.41-2.977
			c-2.068-1.248-2.553-4.283-0.853-6.021c0.566-0.642,1.533-1.121,2.544-1.351l1.059-0.123c2.029-0.037,3.299,0.445,4.23,1.382
			c0.26,0.236,0.471,0.491,0.866,1.042c-1.082,0.621-1.077,0.615-2.629,1.52c-0.33-0.643-0.879-1.045-1.458-1.221
			c-0.9-0.245-2.037,0.021-2.273,0.877c-0.08,0.268-0.064,0.512,0.066,0.947c0.363,0.748,1.59,1.074,2.688,1.529
			c3.162,1.154,4.229,2.391,4.494,3.865C111.62,29.941,111.304,30.764,111.257,30.887z"/>
	</g>
	<g>
		<path fill="#E44D26" d="M7.377,36.41L4.876,8.795h27.485l-2.504,27.611l-11.255,3.072L7.377,36.41z"/>
		<path fill="#F16529" d="M18.618,37.131l9.094-2.482l2.14-23.596H18.618V37.131z"/>
		<path fill="#EBEBEB" d="M18.618,21.295h-4.553l-0.314-3.469h4.867v-3.387H9.99l0.082,0.909l0.846,9.334h7.7V21.295z
			 M18.618,30.092l-0.015,0.004l-3.832-1.021l-0.245-2.697h-3.455l0.482,5.314l7.048,1.928l0.016-0.006L18.618,30.092L18.618,30.092
			z"/>
		<path d="M7.433,1.289h1.748V2.99h1.6V1.289h1.749v5.149h-1.749V4.715h-1.6v1.724H7.433V1.289z M14.829,2.997h-1.54V1.289h4.828
			v1.708h-1.54v3.441h-1.748V2.997z M18.884,1.289h1.823l1.122,1.81l1.12-1.81h1.824v5.149h-1.741V3.886l-1.203,1.831h-0.03
			l-1.204-1.831v2.552h-1.71L18.884,1.289L18.884,1.289z M25.644,1.289h1.749v3.448h2.459v1.702h-4.208V1.289z"/>
		<path fill="#FFFFFF" d="M18.607,21.295v3.387h4.237l-0.399,4.393l-3.837,1.02v3.525l7.053-1.926l0.052-0.572l0.809-8.916
			l0.083-0.908h-0.927h-7.071V21.295z M18.607,14.439v3.387h8.311l0.069-0.762l0.157-1.716l0.083-0.909H18.607z"/>
	</g>
	<g>
		<path fill="#646464" d="M136.467,19.489c0-1.272-0.361-1.925-1.088-1.961c-0.289-0.014-0.57,0.032-0.846,0.138
			c-0.22,0.079-0.366,0.156-0.444,0.234v3.037c0.466,0.291,0.878,0.426,1.237,0.405C136.086,21.293,136.467,20.676,136.467,19.489z
			 M137.361,19.542c0,0.646-0.15,1.183-0.457,1.608c-0.34,0.484-0.811,0.732-1.412,0.746c-0.453,0.014-0.922-0.129-1.403-0.426v2.76
			l-0.777-0.277v-6.126c0.127-0.156,0.291-0.291,0.49-0.405c0.465-0.27,1.026-0.409,1.69-0.416l0.01,0.011
			c0.605-0.007,1.072,0.241,1.4,0.746C137.209,18.225,137.361,18.818,137.361,19.542z"/>
		<path fill="#646464" d="M142.119,21.354c0,0.867-0.088,1.469-0.262,1.803c-0.174,0.332-0.506,0.6-0.996,0.799
			c-0.398,0.156-0.828,0.24-1.289,0.256l-0.129-0.49c0.469-0.064,0.799-0.129,0.99-0.191c0.377-0.129,0.637-0.324,0.777-0.586
			c0.115-0.215,0.17-0.621,0.17-1.227v-0.201c-0.531,0.24-1.09,0.361-1.672,0.361c-0.385,0-0.723-0.121-1.014-0.361
			c-0.326-0.264-0.49-0.598-0.49-1.002v-3.24l0.779-0.267v3.261c0,0.348,0.111,0.617,0.336,0.805
			c0.227,0.188,0.516,0.279,0.873,0.271c0.357-0.006,0.74-0.146,1.146-0.416v-3.804h0.777v4.229H142.119z"/>
		<path fill="#646464" d="M145.156,21.855c-0.092,0.008-0.178,0.01-0.256,0.01c-0.439,0-0.783-0.104-1.029-0.314
			c-0.244-0.209-0.367-0.501-0.367-0.871v-3.066h-0.531v-0.49h0.531v-1.301l0.779-0.277v1.578h0.873v0.489h-0.873v3.044
			c0,0.292,0.078,0.5,0.234,0.621c0.135,0.102,0.348,0.158,0.639,0.17V21.855L145.156,21.855z"/>
		<path fill="#646464" d="M149.869,21.791h-0.777v-3.005c0-0.306-0.07-0.568-0.215-0.789c-0.164-0.249-0.393-0.373-0.686-0.373
			c-0.355,0-0.803,0.188-1.338,0.565v3.602h-0.779v-7.182l0.779-0.246v3.271c0.496-0.362,1.041-0.543,1.631-0.543
			c0.412,0,0.746,0.139,1.002,0.416s0.383,0.622,0.383,1.034V21.791L149.869,21.791z"/>
		<path fill="#646464" d="M154.006,19.367c0-0.489-0.092-0.893-0.275-1.212c-0.221-0.389-0.563-0.595-1.023-0.616
			c-0.854,0.049-1.277,0.661-1.277,1.833c0,0.537,0.088,0.986,0.268,1.346c0.229,0.459,0.57,0.687,1.025,0.679
			C153.578,21.391,154.006,20.713,154.006,19.367z M154.859,19.372c0,0.696-0.178,1.275-0.533,1.738
			c-0.391,0.52-0.932,0.777-1.621,0.777c-0.682,0-1.215-0.258-1.598-0.777c-0.35-0.461-0.523-1.042-0.523-1.738
			c0-0.654,0.189-1.204,0.566-1.652c0.396-0.476,0.92-0.713,1.566-0.713c0.645,0,1.172,0.238,1.576,0.713
			C154.67,18.168,154.859,18.718,154.859,19.372z"/>
		<path fill="#646464" d="M159.322,21.791h-0.779v-3.175c0-0.348-0.104-0.62-0.314-0.816c-0.209-0.195-0.488-0.29-0.836-0.282
			c-0.369,0.007-0.723,0.128-1.057,0.362v3.911h-0.777v-4.007c0.447-0.326,0.859-0.54,1.236-0.639
			c0.355-0.093,0.668-0.139,0.938-0.139c0.186,0,0.359,0.018,0.521,0.054c0.307,0.07,0.555,0.202,0.746,0.394
			c0.213,0.213,0.32,0.469,0.32,0.767L159.322,21.791L159.322,21.791z"/>
		
			<linearGradient id="SVGID_1_" gradientUnits="userSpaceOnUse" x1="3352.3594" y1="-2018.1094" x2="3382.8359" y2="-2044.3303" gradientTransform="matrix(0.1759 0 0 -0.1775 -469.1299 -343.327)">
			<stop  offset="0" style="stop-color:#5A9FD4"/>
			<stop  offset="1" style="stop-color:#306998"/>
		</linearGradient>
		<path fill="url(#SVGID_1_)" d="M125.623,14.637c-0.399,0.002-0.782,0.036-1.119,0.096c-0.991,0.175-1.172,0.542-1.172,1.218v0.893
			h2.343v0.297h-3.222c-0.681,0-1.276,0.41-1.463,1.188c-0.216,0.893-0.226,1.45,0,2.381c0.166,0.694,0.563,1.188,1.245,1.188h0.805
			v-1.071c0-0.773,0.669-1.456,1.464-1.456h2.341c0.65,0,1.17-0.537,1.17-1.19v-2.231c0-0.635-0.535-1.112-1.17-1.218
			C126.44,14.666,126.022,14.635,125.623,14.637z M124.356,15.356c0.242,0,0.438,0.201,0.438,0.448c0,0.246-0.196,0.445-0.438,0.445
			c-0.243,0-0.439-0.199-0.439-0.445C123.917,15.557,124.113,15.356,124.356,15.356z"/>
		
			<linearGradient id="SVGID_2_" gradientUnits="userSpaceOnUse" x1="3394.7031" y1="-2060.2114" x2="3383.8181" y2="-2044.8109" gradientTransform="matrix(0.1759 0 0 -0.1775 -469.1299 -343.327)">
			<stop  offset="0" style="stop-color:#FFD43B"/>
			<stop  offset="1" style="stop-color:#FFE873"/>
		</linearGradient>
		<path fill="url(#SVGID_2_)" d="M128.308,17.141v1.041c0,0.806-0.685,1.485-1.463,1.485h-2.341c-0.642,0-1.172,0.549-1.172,1.19
			v2.233c0,0.633,0.554,1.008,1.172,1.188c0.741,0.219,1.452,0.258,2.341,0c0.59-0.17,1.17-0.514,1.17-1.188v-0.895h-2.34v-0.299
			h3.512c0.682,0,0.936-0.475,1.172-1.188c0.244-0.734,0.234-1.439,0-2.381c-0.168-0.678-0.489-1.188-1.172-1.188L128.308,17.141
			L128.308,17.141z M126.991,22.791c0.242,0,0.439,0.197,0.439,0.443s-0.197,0.447-0.439,0.447s-0.439-0.201-0.439-0.447
			S126.749,22.791,126.991,22.791z"/>
		
			<radialGradient id="SVGID_3_" cx="-5196.7979" cy="-1419.1729" r="8.114" gradientTransform="matrix(0 -0.075 -0.3297 0 -342.2239 -364.0081)" gradientUnits="userSpaceOnUse">
			<stop  offset="0" style="stop-color:#B8B8B8;stop-opacity:0.498"/>
			<stop  offset="1" style="stop-color:#7F7F7F;stop-opacity:0"/>
		</radialGradient>
		<path opacity="0.444" fill="url(#SVGID_3_)" enable-background="new    " d="M128.841,25.795c0,0.336-1.404,0.607-3.139,0.607
			s-3.141-0.271-3.141-0.607s1.406-0.607,3.141-0.607C127.435,25.188,128.841,25.459,128.841,25.795z"/>
	</g>
	<g>
		<path fill="#00618A" d="M168.123,22.904h1.283v-5.069l1.988,4.421c0.232,0.535,0.555,0.725,1.184,0.725
			c0.631,0,0.939-0.189,1.174-0.725l1.986-4.421v5.069h1.285v-5.061c0-0.494-0.197-0.732-0.605-0.855
			c-0.975-0.305-1.629-0.041-1.926,0.617l-1.951,4.361l-1.889-4.361c-0.283-0.658-0.949-0.922-1.926-0.618
			c-0.406,0.124-0.604,0.362-0.604,0.856V22.904L168.123,22.904z M178.092,18.779h1.283v2.793c-0.012,0.15,0.049,0.508,0.752,0.52
			c0.357,0.006,2.77,0,2.791,0v-3.326h1.287c0.006,0-0.002,4.535-0.002,4.555c0.008,1.119-1.387,1.361-2.031,1.381h-4.053v-0.863
			c0.006,0,4.051,0,4.061,0c0.826-0.088,0.729-0.498,0.729-0.637v-0.338h-2.729c-1.27-0.012-2.078-0.564-2.088-1.203
			C178.092,21.602,178.119,18.807,178.092,18.779L178.092,18.779z"/>
		<path fill="#E48E00" d="M185.193,22.904h3.691c0.434,0,0.854-0.09,1.186-0.246c0.557-0.256,0.828-0.602,0.828-1.055v-0.938
			c0-0.371-0.311-0.717-0.914-0.946c-0.32-0.124-0.717-0.189-1.1-0.189h-1.555c-0.52,0-0.766-0.156-0.828-0.502
			c-0.012-0.041-0.012-0.074-0.012-0.115V18.33c0-0.033,0-0.066,0.012-0.107c0.063-0.264,0.197-0.337,0.654-0.379l0.125-0.008h3.666
			v-0.855h-3.604c-0.52,0-0.791,0.033-1.037,0.106c-0.766,0.239-1.1,0.617-1.1,1.276v0.748c0,0.576,0.654,1.07,1.752,1.186
			c0.125,0.008,0.248,0.017,0.371,0.017h1.334c0.049,0,0.098,0,0.135,0.008c0.408,0.033,0.58,0.107,0.705,0.255
			c0.074,0.074,0.098,0.148,0.098,0.23v0.75c0,0.09-0.061,0.205-0.186,0.305c-0.109,0.1-0.295,0.164-0.543,0.182l-0.135,0.008
			h-3.545V22.904z M198.908,21.416c0,0.881,0.654,1.375,1.975,1.473c0.123,0.008,0.246,0.018,0.369,0.018h3.346v-0.855h-3.369
			c-0.754,0-1.037-0.189-1.037-0.643V16.98h-1.283V21.416L198.908,21.416z M191.717,21.461v-3.053c0-0.774,0.545-1.245,1.621-1.394
			c0.111-0.017,0.236-0.024,0.346-0.024h2.438c0.125,0,0.236,0.008,0.359,0.024c1.076,0.148,1.621,0.618,1.621,1.394v3.053
			c0,0.629-0.232,0.965-0.766,1.186l1.266,1.141h-1.49l-1.023-0.924l-1.027,0.064h-1.375c-0.234,0-0.48-0.031-0.754-0.105
			C192.113,22.6,191.717,22.17,191.717,21.461z M193.104,21.387c0,0.041,0.012,0.082,0.021,0.133
			c0.074,0.354,0.41,0.551,0.916,0.551h1.166l-1.068-0.967h1.488l0.936,0.844c0.174-0.092,0.287-0.23,0.326-0.412
			c0.012-0.041,0.012-0.082,0.012-0.123v-2.928c0-0.032,0-0.074-0.012-0.115c-0.074-0.33-0.408-0.52-0.904-0.52h-1.941
			c-0.568,0-0.939,0.247-0.939,0.635V21.387L193.104,21.387z"/>
		<path fill="#00618A" d="M205.729,15.559c-0.789-0.021-1.395,0.052-1.908,0.269c-0.146,0.063-0.381,0.063-0.404,0.247
			c0.08,0.085,0.094,0.211,0.158,0.314c0.123,0.199,0.33,0.466,0.516,0.605c0.201,0.153,0.41,0.316,0.629,0.449
			c0.385,0.235,0.816,0.37,1.189,0.605c0.219,0.14,0.436,0.314,0.65,0.472c0.104,0.077,0.176,0.198,0.313,0.247v-0.022
			c-0.072-0.092-0.092-0.218-0.158-0.314l-0.291-0.292c-0.283-0.379-0.646-0.711-1.031-0.987c-0.309-0.22-0.994-0.518-1.121-0.875
			l-0.023-0.022c0.219-0.024,0.473-0.104,0.674-0.157c0.338-0.091,0.639-0.067,0.986-0.157l0.473-0.135v-0.089
			c-0.176-0.181-0.303-0.421-0.494-0.584c-0.502-0.428-1.051-0.855-1.615-1.212c-0.314-0.197-0.701-0.326-1.033-0.493
			c-0.111-0.057-0.307-0.086-0.381-0.18c-0.176-0.222-0.27-0.504-0.404-0.763c-0.281-0.542-0.559-1.135-0.809-1.706
			c-0.17-0.389-0.281-0.773-0.492-1.122c-1.02-1.675-2.117-2.687-3.816-3.681c-0.359-0.211-0.797-0.294-1.256-0.404l-0.74-0.045
			c-0.148-0.063-0.307-0.247-0.447-0.336c-0.564-0.355-2.008-1.129-2.426-0.112c-0.264,0.642,0.396,1.268,0.631,1.593
			c0.162,0.228,0.375,0.484,0.492,0.74c0.076,0.169,0.092,0.338,0.156,0.517c0.162,0.439,0.305,0.917,0.518,1.324
			c0.105,0.206,0.225,0.422,0.357,0.606c0.082,0.112,0.227,0.162,0.246,0.336c-0.139,0.194-0.145,0.495-0.225,0.74
			c-0.35,1.106-0.217,2.48,0.293,3.299c0.156,0.251,0.525,0.79,1.031,0.583c0.443-0.18,0.346-0.74,0.473-1.234
			c0.029-0.111,0.01-0.194,0.066-0.269v0.023l0.404,0.808c0.299,0.481,0.83,0.984,1.279,1.324c0.23,0.176,0.416,0.48,0.719,0.583
			V16.03h-0.023c-0.059-0.091-0.148-0.128-0.225-0.202c-0.176-0.172-0.371-0.386-0.516-0.583c-0.408-0.555-0.771-1.163-1.102-1.795
			c-0.154-0.302-0.293-0.635-0.426-0.943c-0.051-0.118-0.051-0.298-0.156-0.358c-0.145,0.225-0.357,0.407-0.473,0.673
			c-0.18,0.425-0.203,0.943-0.27,1.481l-0.045,0.022c-0.313-0.076-0.422-0.397-0.539-0.673c-0.293-0.698-0.348-1.822-0.088-2.625
			c0.066-0.208,0.367-0.863,0.246-1.055c-0.059-0.192-0.252-0.302-0.359-0.449c-0.133-0.181-0.268-0.419-0.359-0.628
			c-0.24-0.544-0.352-1.155-0.604-1.705c-0.121-0.263-0.326-0.529-0.494-0.763c-0.188-0.259-0.396-0.45-0.537-0.763
			c-0.055-0.111-0.121-0.29-0.047-0.404c0.023-0.077,0.061-0.109,0.137-0.135c0.129-0.1,0.492,0.034,0.627,0.09
			c0.361,0.149,0.66,0.292,0.965,0.494c0.146,0.097,0.295,0.285,0.473,0.336h0.201c0.316,0.073,0.67,0.022,0.965,0.112
			c0.521,0.159,0.99,0.405,1.414,0.674c1.293,0.817,2.352,1.979,3.074,3.366c0.117,0.223,0.168,0.436,0.27,0.673
			c0.207,0.478,0.467,0.969,0.672,1.437c0.207,0.466,0.406,0.936,0.697,1.324c0.152,0.204,0.742,0.313,1.01,0.426
			c0.188,0.08,0.494,0.162,0.672,0.269c0.34,0.205,0.67,0.449,0.988,0.674C205.213,15.111,205.703,15.357,205.729,15.559
			L205.729,15.559z M195.697,7.01c-0.164-0.003-0.281,0.018-0.404,0.045v0.022h0.021c0.08,0.162,0.217,0.265,0.313,0.404
			l0.227,0.471l0.021-0.022c0.141-0.098,0.201-0.254,0.201-0.494c-0.057-0.059-0.063-0.132-0.109-0.202
			C195.902,7.141,195.777,7.088,195.697,7.01z"/>
	</g>
</g>
<g>
	<g>
		<path fill="#003A2B" d="M256.423,26.688c0,1.188-0.969,2.156-2.156,2.156h-34.75c-1.188,0-2.156-0.969-2.156-2.156V14.313
			c0-1.188,0.969-2.156,2.156-2.156h34.75c1.188,0,2.156,0.969,2.156,2.156V26.688z"/>
		<path fill="#FFFFFF" d="M224.079,14.75h1.875v8.563c-0.938,0.188-1.656,0.25-2.406,0.25c-2.25,0-3.438-1.031-3.438-2.969
			c0-1.875,1.25-3.125,3.188-3.125c0.313,0,0.531,0.031,0.813,0.094V14.75H224.079z M224.079,19.063
			c-0.219-0.063-0.406-0.094-0.625-0.094c-0.938,0-1.469,0.563-1.469,1.594c0,1,0.531,1.531,1.469,1.531
			c0.219,0,0.375,0,0.625-0.063V19.063z M228.892,17.625v4.281c0,1.469-0.094,2.188-0.438,2.813c-0.313,0.594-0.688,0.969-1.5,1.375
			l-1.719-0.813c0.813-0.375,1.219-0.719,1.469-1.25s0.344-1.156,0.344-2.75v-3.656H228.892z M227.048,14.781h1.844v1.906h-1.844
			V14.781z M230.017,18.031c0.813-0.375,1.594-0.563,2.438-0.563c0.938,0,1.563,0.25,1.844,0.75
			c0.156,0.281,0.219,0.625,0.219,1.406v3.75c-0.844,0.125-1.875,0.219-2.656,0.219c-1.563,0-2.25-0.531-2.25-1.75
			c0-1.313,0.938-1.906,3.188-2.094v-0.406c0-0.344-0.156-0.469-0.625-0.469c-0.688,0-1.469,0.188-2.188,0.563v-1.406H230.017z
			 M232.892,20.969c-1.219,0.125-1.625,0.313-1.625,0.781c0,0.375,0.219,0.531,0.719,0.531c0.281,0,0.531-0.031,0.875-0.094v-1.219
			H232.892z M235.423,17.906c1.094-0.281,2-0.406,2.906-0.406c0.938,0,1.625,0.219,2.031,0.625c0.375,0.406,0.5,0.844,0.5,1.75V23.5
			h-1.844v-3.563c0-0.719-0.25-0.969-0.906-0.969c-0.25,0-0.469,0.031-0.844,0.125V23.5h-1.844V17.906z M241.579,24.5
			c0.656,0.344,1.313,0.5,1.969,0.5c1.219,0,1.719-0.5,1.719-1.656v-0.031c-0.375,0.188-0.719,0.25-1.188,0.25
			c-1.625,0-2.656-1.063-2.656-2.75c0-2.094,1.531-3.281,4.219-3.281c0.781,0,1.531,0.094,2.406,0.25l-0.625,1.344
			c-0.5-0.094-0.031,0-0.406-0.063v0.188l0.031,0.781v1c0,0.25,0,0.5,0.031,0.75v0.5c0,1.594-0.125,2.344-0.531,2.938
			c-0.563,0.906-1.563,1.344-3,1.344c-0.719,0-1.344-0.094-2-0.375V24.5H241.579z M245.267,19h-0.188
			c-0.375,0-0.781,0.094-1.063,0.25c-0.438,0.25-0.688,0.719-0.688,1.344c0,0.938,0.469,1.469,1.281,1.469
			c0.25,0,0.469-0.063,0.688-0.125V19H245.267z M250.954,17.469c1.844,0,2.969,1.156,2.969,3.063c0,1.938-1.188,3.156-3.063,3.156
			c-1.844,0-3-1.156-3-3.031C247.892,18.688,249.079,17.469,250.954,17.469z M250.923,22.156c0.719,0,1.125-0.594,1.125-1.625
			c0-1-0.406-1.625-1.125-1.625s-1.156,0.594-1.156,1.625C249.798,21.594,250.204,22.156,250.923,22.156z"/>
	</g>
</g>
</svg>
